<?xml version="1.0" encoding="UTF-8" standalone="no"?>
<!DOCTYPE svg PUBLIC "-//W3C//DTD SVG 1.1//EN"
 "http://www.w3.org/Graphics/SVG/1.1/DTD/svg11.dtd">
<!-- Generated by graphviz version 13.1.0 (20250701.0955)
 -->
<!-- Pages: 1 -->
<svg width="1586pt" height="1628pt"
 viewBox="0.00 0.00 1586.00 1628.00" xmlns="http://www.w3.org/2000/svg" xmlns:xlink="http://www.w3.org/1999/xlink">
<g id="graph0" class="graph" transform="scale(1 1) rotate(0) translate(4 1624)">
<polygon fill="white" stroke="none" points="-4,4 -4,-1624 1581.75,-1624 1581.75,4 -4,4"/>
<!-- &#45;3138527637131153734 -->
<g id="node1" class="node">
<title>&#45;3138527637131153734</title>
<ellipse fill="none" stroke="black" cx="284.88" cy="-18" rx="33.8" ry="18"/>
<text xml:space="preserve" text-anchor="middle" x="284.88" y="-12.2" font-family="Helvetica,sans-Serif" font-size="14.00">config</text>
</g>
<!-- 8010087484358239092 -->
<g id="node2" class="node">
<title>8010087484358239092</title>
<ellipse fill="none" stroke="black" cx="374.88" cy="-18" rx="38.67" ry="18"/>
<text xml:space="preserve" text-anchor="middle" x="374.88" y="-12.2" font-family="Helvetica,sans-Serif" font-size="14.00">context</text>
</g>
<!-- 5213494346387836595 -->
<g id="node3" class="node">
<title>5213494346387836595</title>
<polygon fill="none" stroke="black" points="864,-108 497.75,-108 497.75,-72 864,-72 864,-108"/>
<text xml:space="preserve" text-anchor="middle" x="680.88" y="-84.2" font-family="Helvetica,sans-Serif" font-size="14.00">Step load &#45;&gt; SSP_SSP2_v4.0/baseline_DEFAULT_step_4</text>
</g>
<!-- 8010087484358239092&#45;&gt;5213494346387836595 -->
<g id="edge2" class="edge">
<title>8010087484358239092&#45;&gt;5213494346387836595</title>
<path fill="none" stroke="black" d="M409.09,-26.83C453.44,-36.97 532.39,-55.03 593.81,-69.08"/>
<polygon fill="black" stroke="black" points="592.67,-72.41 603.2,-71.23 594.23,-65.59 592.67,-72.41"/>
</g>
<!-- 5993816466768370462 -->
<g id="node5" class="node">
<title>5993816466768370462</title>
<polygon fill="none" stroke="black" points="887.75,-252 460,-252 460,-216 887.75,-216 887.75,-252"/>
<text xml:space="preserve" text-anchor="middle" x="673.88" y="-228.2" font-family="Helvetica,sans-Serif" font-size="14.00">Step check_context() &#45;&gt; MESSAGEix&#45;GLOBIOM BMT&#45;R12/baseline</text>
</g>
<!-- 8010087484358239092&#45;&gt;5993816466768370462 -->
<g id="edge5" class="edge">
<title>8010087484358239092&#45;&gt;5993816466768370462</title>
<path fill="none" stroke="black" d="M395.3,-33.78C409.61,-44.25 429.1,-58.74 445.88,-72 465.42,-87.46 468.97,-93 488.88,-108 538.61,-145.47 598.78,-185.13 636.7,-209.49"/>
<polygon fill="black" stroke="black" points="634.72,-212.38 645.03,-214.82 638.49,-206.48 634.72,-212.38"/>
</g>
<!-- &#45;2780137556670762928 -->
<g id="node7" class="node">
<title>&#45;2780137556670762928</title>
<polygon fill="none" stroke="black" points="795.38,-396 422.38,-396 422.38,-360 795.38,-360 795.38,-396"/>
<text xml:space="preserve" text-anchor="middle" x="608.88" y="-372.2" font-family="Helvetica,sans-Serif" font-size="14.00">Step solve() &#45;&gt; MESSAGEix&#45;GLOBIOM BMT&#45;R12/baseline</text>
</g>
<!-- 8010087484358239092&#45;&gt;&#45;2780137556670762928 -->
<g id="edge8" class="edge">
<title>8010087484358239092&#45;&gt;&#45;2780137556670762928</title>
<path fill="none" stroke="black" d="M386.9,-35.49C393.83,-45.61 402.26,-59.08 407.88,-72 424.21,-109.57 431.88,-120.03 431.88,-161 431.88,-161 431.88,-161 431.88,-235 431.88,-294.77 494.04,-333.57 544.68,-355.26"/>
<polygon fill="black" stroke="black" points="543.31,-358.48 553.89,-359.05 545.98,-352.01 543.31,-358.48"/>
</g>
<!-- &#45;1245988322994229056 -->
<g id="node9" class="node">
<title>&#45;1245988322994229056</title>
<polygon fill="none" stroke="black" points="793.38,-540 384.38,-540 384.38,-504 793.38,-504 793.38,-540"/>
<text xml:space="preserve" text-anchor="middle" x="588.88" y="-516.2" font-family="Helvetica,sans-Serif" font-size="14.00">Step build_M() &#45;&gt; MESSAGEix&#45;GLOBIOM BMT&#45;R12/baseline_M</text>
</g>
<!-- 8010087484358239092&#45;&gt;&#45;1245988322994229056 -->
<g id="edge11" class="edge">
<title>8010087484358239092&#45;&gt;&#45;1245988322994229056</title>
<path fill="none" stroke="black" d="M378.72,-36.39C384.27,-63.06 393.88,-115.73 393.88,-161 393.88,-161 393.88,-161 393.88,-379 393.88,-441.16 459.43,-478.98 514.52,-499.78"/>
<polygon fill="black" stroke="black" points="513.01,-502.96 523.6,-503.08 515.4,-496.38 513.01,-502.96"/>
</g>
<!-- 3876967463993781372 -->
<g id="node11" class="node">
<title>3876967463993781372</title>
<polygon fill="none" stroke="black" points="738.12,-684 345.62,-684 345.62,-648 738.12,-648 738.12,-684"/>
<text xml:space="preserve" text-anchor="middle" x="541.88" y="-660.2" font-family="Helvetica,sans-Serif" font-size="14.00">Step solve() &#45;&gt; MESSAGEix&#45;GLOBIOM BMT&#45;R12/baseline_M</text>
</g>
<!-- 8010087484358239092&#45;&gt;3876967463993781372 -->
<g id="edge13" class="edge">
<title>8010087484358239092&#45;&gt;3876967463993781372</title>
<path fill="none" stroke="black" d="M371.03,-36.39C365.48,-63.06 355.88,-115.73 355.88,-161 355.88,-161 355.88,-161 355.88,-523 355.88,-584.03 419.93,-622.34 472.86,-643.57"/>
<polygon fill="black" stroke="black" points="471.28,-646.71 481.87,-647.04 473.8,-640.18 471.28,-646.71"/>
</g>
<!-- 6343798505157873116 -->
<g id="node13" class="node">
<title>6343798505157873116</title>
<polygon fill="none" stroke="black" points="723.38,-828 308.38,-828 308.38,-792 723.38,-792 723.38,-828"/>
<text xml:space="preserve" text-anchor="middle" x="515.88" y="-804.2" font-family="Helvetica,sans-Serif" font-size="14.00">Step build_B() &#45;&gt; MESSAGEix&#45;GLOBIOM BMT&#45;R12/baseline_BM</text>
</g>
<!-- 8010087484358239092&#45;&gt;6343798505157873116 -->
<g id="edge16" class="edge">
<title>8010087484358239092&#45;&gt;6343798505157873116</title>
<path fill="none" stroke="black" d="M363.34,-35.62C346.68,-61.28 317.88,-112.65 317.88,-161 317.88,-161 317.88,-161 317.88,-667 317.88,-729.39 383.6,-767.03 439.32,-787.72"/>
<polygon fill="black" stroke="black" points="437.92,-790.94 448.52,-791 440.28,-784.35 437.92,-790.94"/>
</g>
<!-- 2377520946427466550 -->
<g id="node15" class="node">
<title>2377520946427466550</title>
<polygon fill="none" stroke="black" points="671.62,-972 270.12,-972 270.12,-936 671.62,-936 671.62,-972"/>
<text xml:space="preserve" text-anchor="middle" x="470.88" y="-948.2" font-family="Helvetica,sans-Serif" font-size="14.00">Step solve() &#45;&gt; MESSAGEix&#45;GLOBIOM BMT&#45;R12/baseline_BM</text>
</g>
<!-- 8010087484358239092&#45;&gt;2377520946427466550 -->
<g id="edge19" class="edge">
<title>8010087484358239092&#45;&gt;2377520946427466550</title>
<path fill="none" stroke="black" d="M356.11,-33.81C328.42,-57.48 279.88,-106.72 279.88,-161 279.88,-161 279.88,-161 279.88,-811 279.88,-872.59 344.63,-910.6 398.73,-931.61"/>
<polygon fill="black" stroke="black" points="397.38,-934.84 407.97,-935.06 399.83,-928.28 397.38,-934.84"/>
</g>
<!-- &#45;6725768907819313663 -->
<g id="node17" class="node">
<title>&#45;6725768907819313663</title>
<polygon fill="none" stroke="black" points="654.12,-1116 231.62,-1116 231.62,-1080 654.12,-1080 654.12,-1116"/>
<text xml:space="preserve" text-anchor="middle" x="442.88" y="-1092.2" font-family="Helvetica,sans-Serif" font-size="14.00">Step build_T() &#45;&gt; MESSAGEix&#45;GLOBIOM BMT&#45;R12/baseline_BMT</text>
</g>
<!-- 8010087484358239092&#45;&gt;&#45;6725768907819313663 -->
<g id="edge22" class="edge">
<title>8010087484358239092&#45;&gt;&#45;6725768907819313663</title>
<path fill="none" stroke="black" d="M348.92,-31.8C310.21,-52.93 241.88,-99.02 241.88,-161 241.88,-161 241.88,-161 241.88,-955 241.88,-1017.72 307.96,-1055.2 364.35,-1075.76"/>
<polygon fill="black" stroke="black" points="363.08,-1079.03 373.68,-1079.03 365.4,-1072.42 363.08,-1079.03"/>
</g>
<!-- 6033785042615799458 -->
<g id="node19" class="node">
<title>6033785042615799458</title>
<polygon fill="none" stroke="black" points="625.75,-1260 216,-1260 216,-1224 625.75,-1224 625.75,-1260"/>
<text xml:space="preserve" text-anchor="middle" x="420.88" y="-1236.2" font-family="Helvetica,sans-Serif" font-size="14.00">Step solve() &#45;&gt; MESSAGEix&#45;GLOBIOM BMT&#45;R12/baseline_BMT</text>
</g>
<!-- 8010087484358239092&#45;&gt;6033785042615799458 -->
<g id="edge26" class="edge">
<title>8010087484358239092&#45;&gt;6033785042615799458</title>
<path fill="none" stroke="black" d="M345.16,-29.97C314.91,-41.55 270.58,-59.79 256.88,-72 222.5,-102.63 203.88,-114.96 203.88,-161 203.88,-161 203.88,-161 203.88,-1099 203.88,-1163.45 271.73,-1200.23 331.55,-1220.12"/>
<polygon fill="black" stroke="black" points="330.19,-1223.36 340.78,-1223.06 332.32,-1216.69 330.19,-1223.36"/>
</g>
<!-- &#45;622422390130841741 -->
<g id="node21" class="node">
<title>&#45;622422390130841741</title>
<polygon fill="none" stroke="black" points="565.75,-1404 156,-1404 156,-1368 565.75,-1368 565.75,-1404"/>
<text xml:space="preserve" text-anchor="middle" x="360.88" y="-1380.2" font-family="Helvetica,sans-Serif" font-size="14.00">Step solve() &#45;&gt; MESSAGEix&#45;GLOBIOM BMT&#45;R12/baseline_BMT</text>
</g>
<!-- 8010087484358239092&#45;&gt;&#45;622422390130841741 -->
<g id="edge28" class="edge">
<title>8010087484358239092&#45;&gt;&#45;622422390130841741</title>
<path fill="none" stroke="black" d="M345.1,-29.95C339.39,-32 333.46,-34.09 327.88,-36 278.39,-52.89 256.37,-38.92 215.88,-72 180.74,-100.7 165.88,-115.63 165.88,-161 165.88,-161 165.88,-161 165.88,-1243 165.88,-1305.16 231.43,-1342.98 286.52,-1363.78"/>
<polygon fill="black" stroke="black" points="285.01,-1366.96 295.6,-1367.08 287.4,-1360.38 285.01,-1366.96"/>
</g>
<!-- 5355709012198059547 -->
<g id="node23" class="node">
<title>5355709012198059547</title>
<polygon fill="none" stroke="black" points="409.75,-1548 0,-1548 0,-1512 409.75,-1512 409.75,-1548"/>
<text xml:space="preserve" text-anchor="middle" x="204.88" y="-1524.2" font-family="Helvetica,sans-Serif" font-size="14.00">Step solve() &#45;&gt; MESSAGEix&#45;GLOBIOM BMT&#45;R12/baseline_BMT</text>
</g>
<!-- 8010087484358239092&#45;&gt;5355709012198059547 -->
<g id="edge32" class="edge">
<title>8010087484358239092&#45;&gt;5355709012198059547</title>
<path fill="none" stroke="black" d="M345.71,-30.13C339.85,-32.21 333.7,-34.26 327.88,-36 261.35,-55.84 230.96,-29.74 175.88,-72 140.22,-99.35 127.88,-116.06 127.88,-161 127.88,-161 127.88,-161 127.88,-1387 127.88,-1432.1 158.26,-1476.58 180.86,-1503.41"/>
<polygon fill="black" stroke="black" points="177.97,-1505.42 187.17,-1510.67 183.25,-1500.83 177.97,-1505.42"/>
</g>
<!-- &#45;4961721551581690417 -->
<g id="node25" class="node">
<title>&#45;4961721551581690417</title>
<polygon fill="none" stroke="black" points="1353.75,-1404 944,-1404 944,-1368 1353.75,-1368 1353.75,-1404"/>
<text xml:space="preserve" text-anchor="middle" x="1148.88" y="-1380.2" font-family="Helvetica,sans-Serif" font-size="14.00">Step solve() &#45;&gt; MESSAGEix&#45;GLOBIOM BMT&#45;R12/baseline_BMT</text>
</g>
<!-- 8010087484358239092&#45;&gt;&#45;4961721551581690417 -->
<g id="edge34" class="edge">
<title>8010087484358239092&#45;&gt;&#45;4961721551581690417</title>
<path fill="none" stroke="black" d="M413.65,-18.81C557.29,-19.15 1050.88,-29.83 1050.88,-161 1050.88,-161 1050.88,-161 1050.88,-1243 1050.88,-1290.78 1088.92,-1334.14 1117.6,-1360.05"/>
<polygon fill="black" stroke="black" points="1115.17,-1362.57 1125.01,-1366.51 1119.78,-1357.3 1115.17,-1362.57"/>
</g>
<!-- 8247922472589924404 -->
<g id="node27" class="node">
<title>8247922472589924404</title>
<polygon fill="none" stroke="black" points="1130.75,-1548 721,-1548 721,-1512 1130.75,-1512 1130.75,-1548"/>
<text xml:space="preserve" text-anchor="middle" x="925.88" y="-1524.2" font-family="Helvetica,sans-Serif" font-size="14.00">Step solve() &#45;&gt; MESSAGEix&#45;GLOBIOM BMT&#45;R12/baseline_BMT</text>
</g>
<!-- 8010087484358239092&#45;&gt;8247922472589924404 -->
<g id="edge38" class="edge">
<title>8010087484358239092&#45;&gt;8247922472589924404</title>
<path fill="none" stroke="black" d="M413.78,-18.39C517.75,-17.5 799.11,-20.07 872.88,-72 908.8,-97.29 915.88,-117.07 915.88,-161 915.88,-161 915.88,-161 915.88,-1387 915.88,-1426.36 919.74,-1471.7 922.67,-1500.35"/>
<polygon fill="black" stroke="black" points="919.16,-1500.46 923.69,-1510.03 926.12,-1499.72 919.16,-1500.46"/>
</g>
<!-- 6915752491087776959 -->
<g id="node29" class="node">
<title>6915752491087776959</title>
<polygon fill="none" stroke="black" points="1577.75,-1548 1168,-1548 1168,-1512 1577.75,-1512 1577.75,-1548"/>
<text xml:space="preserve" text-anchor="middle" x="1372.88" y="-1524.2" font-family="Helvetica,sans-Serif" font-size="14.00">Step solve() &#45;&gt; MESSAGEix&#45;GLOBIOM BMT&#45;R12/baseline_BMT</text>
</g>
<!-- 8010087484358239092&#45;&gt;6915752491087776959 -->
<g id="edge41" class="edge">
<title>8010087484358239092&#45;&gt;6915752491087776959</title>
<path fill="none" stroke="black" d="M413.73,-20.31C598.8,-27.03 1381.88,-61.36 1381.88,-161 1381.88,-161 1381.88,-161 1381.88,-1387 1381.88,-1426.34 1378.39,-1471.68 1375.76,-1500.34"/>
<polygon fill="black" stroke="black" points="1372.3,-1499.74 1374.84,-1510.03 1379.27,-1500.4 1372.3,-1499.74"/>
</g>
<!-- &#45;7986057295493111700 -->
<g id="node4" class="node">
<title>&#45;7986057295493111700</title>
<ellipse fill="none" stroke="black" cx="677.88" cy="-162" rx="29.41" ry="18"/>
<text xml:space="preserve" text-anchor="middle" x="677.88" y="-156.2" font-family="Helvetica,sans-Serif" font-size="14.00">base</text>
</g>
<!-- 5213494346387836595&#45;&gt;&#45;7986057295493111700 -->
<g id="edge1" class="edge">
<title>5213494346387836595&#45;&gt;&#45;7986057295493111700</title>
<path fill="none" stroke="black" d="M680.13,-108.3C679.82,-115.59 679.45,-124.27 679.1,-132.46"/>
<polygon fill="black" stroke="black" points="675.6,-132.24 678.67,-142.38 682.6,-132.54 675.6,-132.24"/>
</g>
<!-- &#45;7986057295493111700&#45;&gt;5993816466768370462 -->
<g id="edge4" class="edge">
<title>&#45;7986057295493111700&#45;&gt;5993816466768370462</title>
<path fill="none" stroke="black" d="M676.89,-180.3C676.47,-187.59 675.97,-196.27 675.51,-204.46"/>
<polygon fill="black" stroke="black" points="672.02,-204.2 674.94,-214.38 679,-204.6 672.02,-204.2"/>
</g>
<!-- &#45;3048750420622426492 -->
<g id="node6" class="node">
<title>&#45;3048750420622426492</title>
<ellipse fill="none" stroke="black" cx="640.88" cy="-306" rx="57.68" ry="18"/>
<text xml:space="preserve" text-anchor="middle" x="640.88" y="-300.2" font-family="Helvetica,sans-Serif" font-size="14.00">base cloned</text>
</g>
<!-- 5993816466768370462&#45;&gt;&#45;3048750420622426492 -->
<g id="edge3" class="edge">
<title>5993816466768370462&#45;&gt;&#45;3048750420622426492</title>
<path fill="none" stroke="black" d="M665.72,-252.3C662.12,-259.93 657.81,-269.08 653.79,-277.6"/>
<polygon fill="black" stroke="black" points="650.68,-275.99 649.58,-286.53 657.01,-278.97 650.68,-275.99"/>
</g>
<!-- &#45;3048750420622426492&#45;&gt;&#45;2780137556670762928 -->
<g id="edge7" class="edge">
<title>&#45;3048750420622426492&#45;&gt;&#45;2780137556670762928</title>
<path fill="none" stroke="black" d="M632.96,-324.3C629.48,-331.93 625.29,-341.08 621.4,-349.6"/>
<polygon fill="black" stroke="black" points="618.3,-347.97 617.32,-358.52 624.66,-350.88 618.3,-347.97"/>
</g>
<!-- 7190075889333577209 -->
<g id="node8" class="node">
<title>7190075889333577209</title>
<ellipse fill="none" stroke="black" cx="598.88" cy="-450" rx="57.19" ry="18"/>
<text xml:space="preserve" text-anchor="middle" x="598.88" y="-444.2" font-family="Helvetica,sans-Serif" font-size="14.00">base solved</text>
</g>
<!-- &#45;2780137556670762928&#45;&gt;7190075889333577209 -->
<g id="edge6" class="edge">
<title>&#45;2780137556670762928&#45;&gt;7190075889333577209</title>
<path fill="none" stroke="black" d="M606.4,-396.3C605.35,-403.68 604.09,-412.48 602.91,-420.75"/>
<polygon fill="black" stroke="black" points="599.48,-420 601.53,-430.4 606.41,-420.99 599.48,-420"/>
</g>
<!-- 7190075889333577209&#45;&gt;&#45;1245988322994229056 -->
<g id="edge10" class="edge">
<title>7190075889333577209&#45;&gt;&#45;1245988322994229056</title>
<path fill="none" stroke="black" d="M596.4,-468.3C595.35,-475.68 594.09,-484.48 592.91,-492.75"/>
<polygon fill="black" stroke="black" points="589.48,-492 591.53,-502.4 596.41,-492.99 589.48,-492"/>
</g>
<!-- &#45;2698991952240204923 -->
<g id="node10" class="node">
<title>&#45;2698991952240204923</title>
<ellipse fill="none" stroke="black" cx="564.88" cy="-594" rx="36.72" ry="18"/>
<text xml:space="preserve" text-anchor="middle" x="564.88" y="-588.2" font-family="Helvetica,sans-Serif" font-size="14.00">M built</text>
</g>
<!-- &#45;1245988322994229056&#45;&gt;&#45;2698991952240204923 -->
<g id="edge9" class="edge">
<title>&#45;1245988322994229056&#45;&gt;&#45;2698991952240204923</title>
<path fill="none" stroke="black" d="M582.94,-540.3C580.38,-547.76 577.33,-556.68 574.46,-565.03"/>
<polygon fill="black" stroke="black" points="571.16,-563.87 571.23,-574.46 577.78,-566.14 571.16,-563.87"/>
</g>
<!-- &#45;2698991952240204923&#45;&gt;3876967463993781372 -->
<g id="edge14" class="edge">
<title>&#45;2698991952240204923&#45;&gt;3876967463993781372</title>
<path fill="none" stroke="black" d="M559.31,-611.95C556.83,-619.48 553.85,-628.56 551.05,-637.06"/>
<polygon fill="black" stroke="black" points="547.82,-635.69 548.02,-646.29 554.47,-637.88 547.82,-635.69"/>
</g>
<!-- 2009373699380486598 -->
<g id="node12" class="node">
<title>2009373699380486598</title>
<ellipse fill="none" stroke="black" cx="528.88" cy="-738" rx="45.98" ry="18"/>
<text xml:space="preserve" text-anchor="middle" x="528.88" y="-732.2" font-family="Helvetica,sans-Serif" font-size="14.00">M solved</text>
</g>
<!-- 3876967463993781372&#45;&gt;2009373699380486598 -->
<g id="edge12" class="edge">
<title>3876967463993781372&#45;&gt;2009373699380486598</title>
<path fill="none" stroke="black" d="M538.66,-684.3C537.29,-691.68 535.66,-700.48 534.12,-708.75"/>
<polygon fill="black" stroke="black" points="530.71,-707.94 532.33,-718.41 537.6,-709.21 530.71,-707.94"/>
</g>
<!-- 2009373699380486598&#45;&gt;6343798505157873116 -->
<g id="edge17" class="edge">
<title>2009373699380486598&#45;&gt;6343798505157873116</title>
<path fill="none" stroke="black" d="M525.66,-756.3C524.29,-763.68 522.66,-772.48 521.12,-780.75"/>
<polygon fill="black" stroke="black" points="517.71,-779.94 519.33,-790.41 524.6,-781.21 517.71,-779.94"/>
</g>
<!-- &#45;4719355920131124489 -->
<g id="node14" class="node">
<title>&#45;4719355920131124489</title>
<ellipse fill="none" stroke="black" cx="492.88" cy="-882" rx="34.77" ry="18"/>
<text xml:space="preserve" text-anchor="middle" x="492.88" y="-876.2" font-family="Helvetica,sans-Serif" font-size="14.00">B built</text>
</g>
<!-- 6343798505157873116&#45;&gt;&#45;4719355920131124489 -->
<g id="edge15" class="edge">
<title>6343798505157873116&#45;&gt;&#45;4719355920131124489</title>
<path fill="none" stroke="black" d="M510.19,-828.3C507.74,-835.76 504.81,-844.68 502.06,-853.03"/>
<polygon fill="black" stroke="black" points="498.76,-851.86 498.97,-862.46 505.41,-854.05 498.76,-851.86"/>
</g>
<!-- &#45;4719355920131124489&#45;&gt;2377520946427466550 -->
<g id="edge20" class="edge">
<title>&#45;4719355920131124489&#45;&gt;2377520946427466550</title>
<path fill="none" stroke="black" d="M487.55,-899.95C485.21,-907.4 482.39,-916.36 479.75,-924.78"/>
<polygon fill="black" stroke="black" points="476.42,-923.69 476.76,-934.28 483.1,-925.79 476.42,-923.69"/>
</g>
<!-- 3211775677043708972 -->
<g id="node16" class="node">
<title>3211775677043708972</title>
<ellipse fill="none" stroke="black" cx="456.88" cy="-1026" rx="51.83" ry="18"/>
<text xml:space="preserve" text-anchor="middle" x="456.88" y="-1020.2" font-family="Helvetica,sans-Serif" font-size="14.00">BM solved</text>
</g>
<!-- 2377520946427466550&#45;&gt;3211775677043708972 -->
<g id="edge18" class="edge">
<title>2377520946427466550&#45;&gt;3211775677043708972</title>
<path fill="none" stroke="black" d="M467.41,-972.3C465.94,-979.68 464.18,-988.48 462.53,-996.75"/>
<polygon fill="black" stroke="black" points="459.12,-995.92 460.59,-1006.41 465.99,-997.29 459.12,-995.92"/>
</g>
<!-- 3211775677043708972&#45;&gt;&#45;6725768907819313663 -->
<g id="edge23" class="edge">
<title>3211775677043708972&#45;&gt;&#45;6725768907819313663</title>
<path fill="none" stroke="black" d="M453.41,-1044.3C451.94,-1051.68 450.18,-1060.48 448.53,-1068.75"/>
<polygon fill="black" stroke="black" points="445.12,-1067.92 446.59,-1078.41 451.99,-1069.29 445.12,-1067.92"/>
</g>
<!-- &#45;4118130886122243111 -->
<g id="node18" class="node">
<title>&#45;4118130886122243111</title>
<ellipse fill="none" stroke="black" cx="431.88" cy="-1170" rx="34.28" ry="18"/>
<text xml:space="preserve" text-anchor="middle" x="431.88" y="-1164.2" font-family="Helvetica,sans-Serif" font-size="14.00">T built</text>
</g>
<!-- &#45;6725768907819313663&#45;&gt;&#45;4118130886122243111 -->
<g id="edge21" class="edge">
<title>&#45;6725768907819313663&#45;&gt;&#45;4118130886122243111</title>
<path fill="none" stroke="black" d="M440.16,-1116.3C439,-1123.68 437.61,-1132.48 436.31,-1140.75"/>
<polygon fill="black" stroke="black" points="432.89,-1139.98 434.8,-1150.4 439.81,-1141.07 432.89,-1139.98"/>
</g>
<!-- &#45;4118130886122243111&#45;&gt;6033785042615799458 -->
<g id="edge25" class="edge">
<title>&#45;4118130886122243111&#45;&gt;6033785042615799458</title>
<path fill="none" stroke="black" d="M429.16,-1188.3C428,-1195.68 426.61,-1204.48 425.31,-1212.75"/>
<polygon fill="black" stroke="black" points="421.89,-1211.98 423.8,-1222.4 428.81,-1213.07 421.89,-1211.98"/>
</g>
<!-- 9139119180429798534 -->
<g id="node20" class="node">
<title>9139119180429798534</title>
<ellipse fill="none" stroke="black" cx="420.88" cy="-1314" rx="92.29" ry="18"/>
<text xml:space="preserve" text-anchor="middle" x="420.88" y="-1308.2" font-family="Helvetica,sans-Serif" font-size="14.00">BMT baseline solved</text>
</g>
<!-- 6033785042615799458&#45;&gt;9139119180429798534 -->
<g id="edge24" class="edge">
<title>6033785042615799458&#45;&gt;9139119180429798534</title>
<path fill="none" stroke="black" d="M420.88,-1260.3C420.88,-1267.59 420.88,-1276.27 420.88,-1284.46"/>
<polygon fill="black" stroke="black" points="417.38,-1284.38 420.88,-1294.38 424.38,-1284.38 417.38,-1284.38"/>
</g>
<!-- 9139119180429798534&#45;&gt;&#45;622422390130841741 -->
<g id="edge29" class="edge">
<title>9139119180429798534&#45;&gt;&#45;622422390130841741</title>
<path fill="none" stroke="black" d="M406.35,-1331.95C399.38,-1340.08 390.87,-1350 383.11,-1359.06"/>
<polygon fill="black" stroke="black" points="380.52,-1356.71 376.67,-1366.58 385.83,-1361.26 380.52,-1356.71"/>
</g>
<!-- 9139119180429798534&#45;&gt;&#45;4961721551581690417 -->
<g id="edge35" class="edge">
<title>9139119180429798534&#45;&gt;&#45;4961721551581690417</title>
<path fill="none" stroke="black" d="M502.27,-1322.83C611.2,-1333.3 807.83,-1352.21 955.75,-1366.43"/>
<polygon fill="black" stroke="black" points="955.42,-1369.91 965.71,-1367.39 956.09,-1362.95 955.42,-1369.91"/>
</g>
<!-- 549572791434497890 -->
<g id="node22" class="node">
<title>549572791434497890</title>
<ellipse fill="none" stroke="black" cx="280.88" cy="-1458" rx="44.03" ry="18"/>
<text xml:space="preserve" text-anchor="middle" x="280.88" y="-1452.2" font-family="Helvetica,sans-Serif" font-size="14.00">NPi2030</text>
</g>
<!-- &#45;622422390130841741&#45;&gt;549572791434497890 -->
<g id="edge27" class="edge">
<title>&#45;622422390130841741&#45;&gt;549572791434497890</title>
<path fill="none" stroke="black" d="M341.1,-1404.3C330.88,-1413.25 318.26,-1424.29 307.22,-1433.94"/>
<polygon fill="black" stroke="black" points="305.15,-1431.11 299.92,-1440.33 309.75,-1436.38 305.15,-1431.11"/>
</g>
<!-- 549572791434497890&#45;&gt;5355709012198059547 -->
<g id="edge31" class="edge">
<title>549572791434497890&#45;&gt;5355709012198059547</title>
<path fill="none" stroke="black" d="M263.63,-1474.88C254.32,-1483.46 242.62,-1494.23 232.11,-1503.91"/>
<polygon fill="black" stroke="black" points="229.75,-1501.33 224.76,-1510.68 234.49,-1506.48 229.75,-1501.33"/>
</g>
<!-- &#45;8826629361462117508 -->
<g id="node24" class="node">
<title>&#45;8826629361462117508</title>
<ellipse fill="none" stroke="black" cx="204.88" cy="-1602" rx="56.71" ry="18"/>
<text xml:space="preserve" text-anchor="middle" x="204.88" y="-1596.2" font-family="Helvetica,sans-Serif" font-size="14.00">NPi_forever</text>
</g>
<!-- 5355709012198059547&#45;&gt;&#45;8826629361462117508 -->
<g id="edge30" class="edge">
<title>5355709012198059547&#45;&gt;&#45;8826629361462117508</title>
<path fill="none" stroke="black" d="M204.88,-1548.3C204.88,-1555.59 204.88,-1564.27 204.88,-1572.46"/>
<polygon fill="black" stroke="black" points="201.38,-1572.38 204.88,-1582.38 208.38,-1572.38 201.38,-1572.38"/>
</g>
<!-- &#45;4740073808525762559 -->
<g id="node26" class="node">
<title>&#45;4740073808525762559</title>
<ellipse fill="none" stroke="black" cx="1148.88" cy="-1458" rx="48.91" ry="18"/>
<text xml:space="preserve" text-anchor="middle" x="1148.88" y="-1452.2" font-family="Helvetica,sans-Serif" font-size="14.00">NDC2030</text>
</g>
<!-- &#45;4961721551581690417&#45;&gt;&#45;4740073808525762559 -->
<g id="edge33" class="edge">
<title>&#45;4961721551581690417&#45;&gt;&#45;4740073808525762559</title>
<path fill="none" stroke="black" d="M1148.88,-1404.3C1148.88,-1411.59 1148.88,-1420.27 1148.88,-1428.46"/>
<polygon fill="black" stroke="black" points="1145.38,-1428.38 1148.88,-1438.38 1152.38,-1428.38 1145.38,-1428.38"/>
</g>
<!-- &#45;4740073808525762559&#45;&gt;8247922472589924404 -->
<g id="edge37" class="edge">
<title>&#45;4740073808525762559&#45;&gt;8247922472589924404</title>
<path fill="none" stroke="black" d="M1112.55,-1470.4C1080.06,-1480.6 1031.63,-1495.8 992.24,-1508.17"/>
<polygon fill="black" stroke="black" points="991.33,-1504.79 982.84,-1511.12 993.43,-1511.46 991.33,-1504.79"/>
</g>
<!-- &#45;4740073808525762559&#45;&gt;6915752491087776959 -->
<g id="edge40" class="edge">
<title>&#45;4740073808525762559&#45;&gt;6915752491087776959</title>
<path fill="none" stroke="black" d="M1185.36,-1470.4C1218,-1480.6 1266.64,-1495.8 1306.21,-1508.17"/>
<polygon fill="black" stroke="black" points="1305.07,-1511.48 1315.66,-1511.12 1307.16,-1504.8 1305.07,-1511.48"/>
</g>
<!-- &#45;3796551369282453153 -->
<g id="node28" class="node">
<title>&#45;3796551369282453153</title>
<ellipse fill="none" stroke="black" cx="925.88" cy="-1602" rx="42.57" ry="18"/>
<text xml:space="preserve" text-anchor="middle" x="925.88" y="-1596.2" font-family="Helvetica,sans-Serif" font-size="14.00">glasgow</text>
</g>
<!-- 8247922472589924404&#45;&gt;&#45;3796551369282453153 -->
<g id="edge36" class="edge">
<title>8247922472589924404&#45;&gt;&#45;3796551369282453153</title>
<path fill="none" stroke="black" d="M925.88,-1548.3C925.88,-1555.59 925.88,-1564.27 925.88,-1572.46"/>
<polygon fill="black" stroke="black" points="922.38,-1572.38 925.88,-1582.38 929.38,-1572.38 922.38,-1572.38"/>
</g>
<!-- &#45;7882404326910568483 -->
<g id="node30" class="node">
<title>&#45;7882404326910568483</title>
<ellipse fill="none" stroke="black" cx="1372.88" cy="-1602" rx="47.93" ry="18"/>
<text xml:space="preserve" text-anchor="middle" x="1372.88" y="-1596.2" font-family="Helvetica,sans-Serif" font-size="14.00">glasgow+</text>
</g>
<!-- 6915752491087776959&#45;&gt;&#45;7882404326910568483 -->
<g id="edge39" class="edge">
<title>6915752491087776959&#45;&gt;&#45;7882404326910568483</title>
<path fill="none" stroke="black" d="M1372.88,-1548.3C1372.88,-1555.59 1372.88,-1564.27 1372.88,-1572.46"/>
<polygon fill="black" stroke="black" points="1369.38,-1572.38 1372.88,-1582.38 1376.38,-1572.38 1369.38,-1572.38"/>
</g>
</g>
</svg>
