<?xml version="1.0" encoding="utf-8" standalone="no"?>
<!DOCTYPE svg PUBLIC "-//W3C//DTD SVG 1.1//EN"
  "http://www.w3.org/Graphics/SVG/1.1/DTD/svg11.dtd">
<svg xmlns:xlink="http://www.w3.org/1999/xlink" width="216pt" height="216pt" viewBox="0 0 216 216" xmlns="http://www.w3.org/2000/svg" version="1.1">
 <metadata>
  <rdf:RDF xmlns:dc="http://purl.org/dc/elements/1.1/" xmlns:cc="http://creativecommons.org/ns#" xmlns:rdf="http://www.w3.org/1999/02/22-rdf-syntax-ns#">
   <cc:Work>
    <dc:type rdf:resource="http://purl.org/dc/dcmitype/StillImage"/>
    <dc:date>2025-08-13T09:22:39.763723</dc:date>
    <dc:format>image/svg+xml</dc:format>
    <dc:creator>
     <cc:Agent>
      <dc:title>Matplotlib v3.10.3, https://matplotlib.org/</dc:title>
     </cc:Agent>
    </dc:creator>
   </cc:Work>
  </rdf:RDF>
 </metadata>
 <defs>
  <style type="text/css">*{stroke-linejoin: round; stroke-linecap: butt}</style>
 </defs>
 <g id="figure_1">
  <g id="patch_1">
   <path d="M 0 216 
L 216 216 
L 216 0 
L 0 0 
z
" style="fill: #ffffff"/>
  </g>
  <g id="axes_1">
   <g id="patch_2">
    <path d="M 7.2 208.8 
L 208.8 208.8 
L 208.8 7.2 
L 7.2 7.2 
z
" style="fill: #ffffff"/>
   </g>
   <g id="LineCollection_1">
    <path d="M 180 108 
L 179.942165 105.114716 
L 179.768754 102.234068 
L 179.480044 99.362683 
L 179.076501 96.505174 
L 178.558771 93.666131 
L 177.927688 90.850116 
L 177.184264 88.061653 
L 176.329693 85.305221 
L 175.36535 82.585249 
L 174.292783 79.906106 
L 173.113716 77.272097 
L 171.830041 74.687452 
L 170.443823 72.156325 
L 168.957287 69.682782 
L 167.372821 67.270796 
L 165.692973 64.924242 
L 163.920439 62.646891 
L 162.058067 60.4424 
L 160.108851 58.314311 
" clip-path="url(#p0efe31f188)" style="fill: none; stroke: #1f77b4; stroke-width: 10"/>
    <path d="M 160.108851 58.314311 
L 158.334504 56.517598 
L 156.498245 54.78421 
L 154.602331 53.116279 
L 152.649094 51.515857 
L 150.640938 49.984912 
L 148.580332 48.525328 
L 146.469812 47.138899 
L 144.311972 45.827331 
L 142.109467 44.592238 
L 139.865006 43.435138 
L 137.581351 42.357455 
L 135.261309 41.360515 
L 132.907735 40.445543 
L 130.523524 39.613665 
L 128.111609 38.865904 
L 125.674955 38.203181 
L 123.216561 37.62631 
L 120.739449 37.136 
L 118.246668 36.732856 
" clip-path="url(#p0efe31f188)" style="fill: none; stroke: #aec7e8; stroke-width: 10"/>
    <path d="M 118.246668 36.732856 
L 113.586115 36.217026 
L 108.901869 36.005649 
L 104.213798 36.09962 
L 99.541786 36.498541 
L 94.905647 37.200721 
L 90.325045 38.203181 
L 85.819408 39.501669 
L 81.407845 41.090679 
L 77.109067 42.96347 
L 72.941306 45.1121 
L 68.922239 47.527456 
L 65.068913 50.199293 
L 61.397669 53.116279 
L 57.92408 56.266044 
L 54.662877 59.635227 
L 51.627892 63.209539 
L 48.831997 66.97382 
L 46.287051 70.912105 
L 44.003848 75.00769 
" clip-path="url(#p0efe31f188)" style="fill: none; stroke: #ff7f0e; stroke-width: 10"/>
    <path d="M 44.003848 75.00769 
L 43.515171 75.973342 
L 43.041064 76.946231 
L 42.581634 77.926135 
L 42.136985 78.912835 
L 41.707217 79.906106 
L 41.292427 80.905725 
L 40.89271 81.911466 
L 40.508155 82.923102 
L 40.138849 83.940403 
L 39.784876 84.96314 
L 39.446316 85.991083 
L 39.123245 87.023998 
L 38.815736 88.061653 
L 38.523859 89.103813 
L 38.24768 90.150242 
L 37.987261 91.200704 
L 37.74266 92.254961 
L 37.513934 93.312777 
L 37.301134 94.37391 
" clip-path="url(#p0efe31f188)" style="fill: none; stroke: #ffbb78; stroke-width: 10"/>
    <path d="M 37.301134 94.37391 
L 36.923499 96.505174 
L 36.610098 98.646825 
L 36.361213 100.796929 
L 36.17707 102.953542 
L 36.057835 105.114716 
L 36.003615 107.278498 
L 36.01446 109.442932 
L 36.09036 111.606061 
L 36.231246 113.765932 
L 36.436991 115.920592 
L 36.707409 118.068094 
L 37.042256 120.206497 
L 37.441229 122.333869 
L 37.903967 124.448287 
L 38.430052 126.547841 
L 39.01901 128.630632 
L 39.670307 130.694779 
L 40.383354 132.738416 
L 41.157509 134.759697 
" clip-path="url(#p0efe31f188)" style="fill: none; stroke: #2ca02c; stroke-width: 10"/>
    <path d="M 41.157509 134.759697 
L 42.136985 137.087165 
L 43.197474 139.378856 
L 44.337672 141.63195 
L 45.556177 143.843675 
L 46.85149 146.011311 
L 48.222018 148.132192 
L 49.666074 150.20371 
L 51.181883 152.223315 
L 52.76758 154.188525 
L 54.421215 156.096921 
L 56.140753 157.946156 
L 57.92408 159.733956 
L 59.769002 161.458122 
L 61.673249 163.116532 
L 63.63448 164.707148 
L 65.650281 166.228012 
L 67.718174 167.677253 
L 69.835616 169.05309 
L 72 170.353829 
" clip-path="url(#p0efe31f188)" style="fill: none; stroke: #98df8a; stroke-width: 10"/>
    <path d="M 72 170.353829 
L 76.134994 172.564862 
L 80.405136 174.502056 
L 84.792317 176.157196 
L 89.277927 177.523262 
L 93.842944 178.59446 
L 98.468004 179.366246 
L 103.133493 179.835347 
L 107.819622 179.999774 
L 112.506516 179.858829 
L 117.174296 179.41311 
L 121.803165 178.664508 
L 126.373492 177.616196 
L 130.865891 176.272623 
L 135.261309 174.639485 
L 139.541104 172.723711 
L 143.687125 170.533424 
L 147.681786 168.077915 
L 151.508144 165.367599 
L 155.149973 162.413969 
" clip-path="url(#p0efe31f188)" style="fill: none; stroke: #d62728; stroke-width: 10"/>
    <path d="M 155.149973 162.413969 
L 156.230998 161.458122 
L 157.292651 160.480802 
L 158.334504 159.482402 
L 159.356139 158.463323 
L 160.357146 157.423974 
L 161.337123 156.364773 
L 162.295676 155.286146 
L 163.23242 154.188525 
L 164.146978 153.072351 
L 165.038984 151.938073 
L 165.908079 150.786147 
L 166.753914 149.617035 
L 167.57615 148.431206 
L 168.374455 147.229137 
L 169.14851 146.011311 
L 169.898003 144.778217 
L 170.622633 143.53035 
L 171.32211 142.268212 
L 171.996152 140.99231 
" clip-path="url(#p0efe31f188)" style="fill: none; stroke: #ff9896; stroke-width: 10"/>
    <path d="M 171.996152 140.99231 
L 172.802526 139.378856 
L 173.56823 137.745709 
L 174.292783 136.093894 
L 174.975731 134.424447 
L 175.616646 132.738416 
L 176.215124 131.03686 
L 176.77079 129.320845 
L 177.283296 127.591449 
L 177.75232 125.849758 
L 178.177567 124.096865 
L 178.558771 122.333869 
L 178.895693 120.561877 
L 179.18812 118.782002 
L 179.43587 116.995359 
L 179.638787 115.203071 
L 179.796743 113.406263 
L 179.90964 111.606061 
L 179.977406 109.803597 
L 180 108 
" clip-path="url(#p0efe31f188)" style="fill: none; stroke: #9467bd; stroke-width: 10"/>
   </g>
   <g id="LineCollection_2">
    <path d="M 180 108 
L 170.515793 107.867502 
L 159.851078 107.484833 
L 145.214874 106.688572 
L 129.552849 105.579597 
L 113.319846 104.201341 
L 96.970712 102.597236 
L 80.960291 100.810714 
L 65.743429 98.885209 
L 51.77497 96.864153 
L 41.804709 95.207698 
L 37.301134 94.37391 
M 179.490808 116.547773 
L 170.094666 115.274446 
L 159.566 113.582718 
L 148.132521 111.524971 
L 132.915182 108.51787 
L 117.084617 105.123015 
L 101.085575 101.442711 
L 85.362801 97.579266 
L 70.361044 93.634986 
L 59.17764 90.49011 
L 48.968035 87.411357 
L 39.959941 84.451107 
M 177.970433 124.974643 
L 171.200121 123.235977 
L 161.212989 120.400089 
L 150.32907 117.047334 
L 138.766993 113.259255 
L 126.745388 109.117397 
L 111.40524 103.566802 
L 96.115699 97.750109 
L 81.303779 91.826584 
L 70.08508 87.117873 
L 59.663974 82.524265 
L 50.259093 78.127305 
L 44.003848 75.00769 
L 44.003848 75.00769 
" clip-path="url(#p0efe31f188)" style="fill: none; stroke: #9467bd; stroke-width: 0.5"/>
    <path d="M 175.46038 133.161421 
L 173.355844 132.370809 
L 171.174699 131.540457 
L 168.920295 130.671847 
L 166.595986 129.766462 
L 164.205124 128.825787 
L 161.75106 127.851302 
L 159.237146 126.844491 
L 156.666736 125.806838 
L 154.04318 124.739825 
L 151.369831 123.644934 
L 148.650041 122.523649 
L 145.887162 121.377453 
L 143.084546 120.207828 
L 140.245546 119.016258 
L 137.373513 117.804225 
L 134.471799 116.573212 
L 131.543757 115.324703 
L 128.592738 114.060179 
L 125.622096 112.781124 
L 122.63518 111.489021 
L 119.635345 110.185353 
L 116.625942 108.871603 
L 113.610322 107.549253 
L 110.591839 106.219786 
L 107.573844 104.884686 
L 104.55969 103.545434 
L 101.552727 102.203515 
L 98.556309 100.860411 
L 95.573788 99.517605 
L 92.608515 98.176579 
L 89.663843 96.838817 
L 86.743124 95.505802 
L 83.84971 94.179016 
L 80.986952 92.859943 
L 78.158204 91.550064 
L 75.366817 90.250864 
L 72.616143 88.963825 
L 69.909534 87.69043 
L 67.250343 86.432162 
L 64.641922 85.190503 
L 62.087621 83.966937 
L 59.590795 82.762946 
L 57.154794 81.580014 
L 54.782971 80.419624 
L 52.478678 79.283257 
L 50.245268 78.172397 
L 48.086091 77.088528 
L 46.0045 76.033131 
L 44.003848 75.00769 
M 171.996152 140.99231 
L 169.999968 139.95803 
L 167.931659 138.876361 
L 165.794394 137.749148 
L 163.591341 136.578237 
L 161.325669 135.365473 
L 159.000547 134.112705 
L 156.619142 132.821776 
L 154.184624 131.494534 
L 151.70016 130.132825 
L 149.168919 128.738495 
L 146.59407 127.313389 
L 143.978781 125.859354 
L 141.32622 124.378236 
L 138.639557 122.871882 
L 135.921959 121.342137 
L 133.176595 119.790847 
L 130.406633 118.219859 
L 127.615243 116.631018 
L 124.805592 115.026171 
L 121.980848 113.407164 
L 119.144181 111.775843 
L 116.298759 110.134054 
L 113.44775 108.483643 
L 110.594322 106.826457 
L 107.741645 105.16434 
L 104.892887 103.499141 
L 102.051215 101.832704 
L 99.219799 100.166876 
L 96.401807 98.503502 
L 93.600408 96.84443 
L 90.81877 95.191505 
L 88.060061 93.546573 
L 85.32745 91.91148 
L 82.624105 90.288072 
L 79.953196 88.678197 
L 77.317889 87.083698 
L 74.721355 85.506424 
L 72.16676 83.948219 
L 69.657275 82.410931 
L 67.196066 80.896404 
L 64.786304 79.406486 
L 62.431155 77.943022 
L 60.133789 76.507858 
L 57.897374 75.102841 
L 55.725079 73.729817 
L 53.620071 72.390631 
L 51.58552 71.087131 
L 49.624594 69.821161 
L 47.740462 68.594568 
" clip-path="url(#p0efe31f188)" style="fill: none; stroke: #9467bd; stroke-width: 0.5"/>
    <path d="M 155.149973 162.413969 
L 153.665332 160.765071 
L 152.100079 159.150313 
L 150.457121 157.570402 
L 148.739366 156.026042 
L 146.949719 154.517938 
L 145.091087 153.046795 
L 143.166378 151.61332 
L 141.178498 150.218216 
L 139.130354 148.862189 
L 137.024852 147.545945 
L 134.864899 146.270188 
L 132.653403 145.035624 
L 130.393269 143.842957 
L 128.087405 142.692893 
L 125.738717 141.586138 
L 123.350112 140.523395 
L 120.924497 139.505371 
L 118.464779 138.532771 
L 115.973864 137.606299 
L 113.454659 136.726662 
L 110.910071 135.894563 
L 108.343007 135.110709 
L 105.756373 134.375805 
L 103.153077 133.690555 
L 100.536024 133.055665 
L 97.908122 132.47184 
L 95.272277 131.939785 
L 92.631397 131.460205 
L 89.988387 131.033806 
L 87.346155 130.661292 
L 84.707608 130.34337 
L 82.075652 130.080743 
L 79.453194 129.874118 
L 76.84314 129.724199 
L 74.248399 129.631692 
L 71.671875 129.597301 
L 69.116477 129.621732 
L 66.58511 129.70569 
L 64.080682 129.849881 
L 61.606099 130.055009 
L 59.164268 130.321779 
L 56.758097 130.650897 
L 54.39049 131.043069 
L 52.064356 131.498998 
L 49.782602 132.01939 
L 47.548133 132.604951 
L 45.363856 133.256386 
L 43.23268 133.974399 
L 41.157509 134.759697 
M 149.297503 166.978947 
L 147.990372 165.185488 
L 146.59928 163.416746 
L 145.127051 161.673743 
L 143.576509 159.957498 
L 141.950478 158.269031 
L 140.251783 156.609364 
L 138.483248 154.979515 
L 136.647698 153.380507 
L 134.747955 151.813358 
L 132.786845 150.279089 
L 130.767192 148.778721 
L 128.691819 147.313274 
L 126.563552 145.883768 
L 124.385214 144.491224 
L 122.159629 143.136662 
L 119.889622 141.821101 
L 117.578017 140.545563 
L 115.227637 139.311068 
L 112.841309 138.118636 
L 110.421854 136.969288 
L 107.972098 135.864043 
L 105.494865 134.803922 
L 102.992979 133.789945 
L 100.469265 132.823134 
L 97.926546 131.904507 
L 95.367646 131.035086 
L 92.79539 130.21589 
L 90.212603 129.44794 
L 87.622107 128.732257 
L 85.026728 128.06986 
L 82.42929 127.46177 
L 79.832616 126.909008 
L 77.239532 126.412593 
L 74.65286 125.973545 
L 72.075426 125.592886 
L 69.510054 125.271636 
L 66.959567 125.010814 
L 64.426791 124.811442 
L 61.914549 124.674539 
L 59.425665 124.601126 
L 56.962963 124.592223 
L 54.529269 124.64885 
L 52.127405 124.772028 
L 49.760197 124.962777 
L 47.430468 125.222118 
L 45.141043 125.55107 
L 42.894745 125.950654 
L 40.6944 126.421891 
L 38.54283 126.9658 
" clip-path="url(#p0efe31f188)" style="fill: none; stroke: #d62728; stroke-width: 0.5"/>
    <path d="M 143.006165 170.917155 
L 140.992567 166.94475 
L 139.235915 162.746991 
L 137.732722 158.346848 
L 136.479498 153.767292 
L 135.472754 149.031294 
L 134.709001 144.161823 
L 134.18475 139.181851 
L 133.896513 134.114348 
L 133.840801 128.982285 
L 134.014124 123.808633 
L 134.412995 118.616361 
L 135.033923 113.428441 
L 135.87342 108.267844 
L 136.927997 103.157539 
L 138.194166 98.120498 
L 139.668437 93.17969 
L 141.347322 88.358088 
L 143.227331 83.67866 
L 145.304975 79.164379 
L 147.576767 74.838214 
L 150.039217 70.723136 
L 152.688835 66.842115 
L 155.522134 63.218123 
L 158.535624 59.87413 
L 160.108851 58.314311 
M 136.342816 174.186742 
L 134.74949 170.028941 
L 133.436139 165.674986 
L 132.396877 161.147301 
L 131.625817 156.468309 
L 131.117073 151.660433 
L 130.86476 146.746097 
L 130.862992 141.747725 
L 131.105882 136.687738 
L 131.587546 131.588562 
L 132.302096 126.472619 
L 133.243647 121.362333 
L 134.406313 116.280126 
L 135.784209 111.248424 
L 137.371447 106.289648 
L 139.162143 101.426222 
L 141.15041 96.68057 
L 143.330363 92.075116 
L 145.696115 87.632281 
L 148.241781 83.374491 
L 150.961474 79.324167 
L 153.849309 75.503735 
L 156.8994 71.935616 
L 160.105861 68.642235 
L 163.462806 65.646014 
L 165.19587 64.266347 
M 129.378267 176.752961 
L 128.221978 172.454079 
L 127.365387 167.990579 
L 126.800287 163.384088 
L 126.518472 158.656235 
L 126.511735 153.828646 
L 126.771871 148.922948 
L 127.290673 143.960769 
L 128.059933 138.963735 
L 129.071447 133.953475 
L 130.317007 128.951615 
L 131.788407 123.979782 
L 133.47744 119.059603 
L 135.375901 114.212707 
L 137.475582 109.460719 
L 139.768278 104.825267 
L 142.245781 100.327979 
L 144.899886 95.990481 
L 147.722386 91.834401 
L 150.705075 87.881365 
L 153.839745 84.153002 
L 157.118192 80.670938 
L 160.532207 77.456801 
L 164.073586 74.532217 
L 167.734121 71.918814 
L 169.606508 70.735564 
L 169.606508 70.735564 
" clip-path="url(#p0efe31f188)" style="fill: none; stroke: #d62728; stroke-width: 0.5"/>
    <path d="M 122.186531 178.588542 
L 121.476198 174.35052 
L 121.075552 170.285059 
L 120.974431 166.399831 
L 121.162675 162.702503 
L 121.630122 159.200747 
L 122.366611 155.902231 
L 123.361983 152.814625 
L 124.606074 149.945598 
L 126.088726 147.30282 
L 127.799775 144.89396 
L 129.729063 142.726689 
L 131.866426 140.808675 
L 134.201706 139.147587 
L 136.72474 137.751096 
L 139.425367 136.626871 
L 142.293427 135.782582 
L 145.318759 135.225897 
L 148.491201 134.964487 
L 151.800593 135.00602 
L 155.236773 135.358168 
L 158.789581 136.028598 
L 162.448856 137.02498 
L 166.204436 138.354985 
L 170.046161 140.026281 
L 171.996152 140.99231 
M 114.844035 179.673978 
L 114.571429 175.388853 
L 114.584521 171.314076 
L 114.87261 167.45594 
L 115.424993 163.820739 
L 116.230969 160.414763 
L 117.279836 157.244306 
L 118.560893 154.31566 
L 120.063436 151.635118 
L 121.776766 149.208971 
L 123.690179 147.043513 
L 125.792975 145.145035 
L 128.07445 143.51983 
L 130.523905 142.174191 
L 133.130635 141.114409 
L 135.883941 140.346778 
L 138.77312 139.87759 
L 141.78747 139.713137 
L 144.916289 139.859711 
L 148.148876 140.323605 
L 151.474529 141.111112 
L 154.882545 142.228523 
L 158.362225 143.682132 
L 161.902864 145.47823 
L 165.493762 147.62311 
L 167.304714 148.82831 
M 107.428807 179.997734 
L 107.596026 175.710494 
L 108.020366 171.668084 
L 108.690763 167.875399 
L 109.596156 164.337333 
L 110.725481 161.05878 
L 112.067675 158.044633 
L 113.611676 155.299787 
L 115.346422 152.829135 
L 117.260848 150.637572 
L 119.343893 148.729991 
L 121.584493 147.111287 
L 123.971586 145.786353 
L 126.494109 144.760083 
L 129.141 144.037372 
L 131.901195 143.623113 
L 134.763631 143.5222 
L 137.717247 143.739527 
L 140.750978 144.279988 
L 143.853763 145.148477 
L 147.014539 146.349889 
L 150.222242 147.889116 
L 153.46581 149.771053 
L 156.734181 152.000594 
L 160.01629 154.582633 
L 161.65904 156.007368 
M 100.01965 179.556369 
L 100.624194 175.311928 
L 101.453144 171.342941 
L 102.495252 167.652904 
L 103.739273 164.245314 
L 105.17396 161.123669 
L 106.788067 158.291465 
L 108.570347 155.7522 
L 110.509553 153.509371 
L 112.594441 151.566474 
L 114.813762 149.927006 
L 117.156271 148.594465 
L 119.610722 147.572347 
L 122.165867 146.864149 
L 124.81046 146.47337 
L 127.533256 146.403504 
L 130.323008 146.65805 
L 133.168468 147.240504 
L 136.058392 148.154364 
L 138.981532 149.403126 
L 141.926642 150.990287 
L 144.882476 152.919345 
L 147.837787 155.193796 
L 150.781329 157.817138 
L 153.701855 160.792867 
L 155.149973 162.413969 
L 155.149973 162.413969 
" clip-path="url(#p0efe31f188)" style="fill: none; stroke: #d62728; stroke-width: 0.5"/>
    <path d="M 92.695299 178.354574 
L 93.494053 173.937635 
L 94.021788 169.317404 
L 94.286783 164.517496 
L 94.297314 159.561525 
L 94.06166 154.473102 
L 93.588099 149.275843 
L 92.884907 143.993361 
L 91.960363 138.649268 
L 90.822745 133.26718 
L 89.48033 127.870708 
L 87.941397 122.483467 
L 86.214222 117.12907 
L 84.307084 111.83113 
L 82.22826 106.613262 
L 79.986028 101.499078 
L 77.588666 96.512192 
L 75.044451 91.676218 
L 72.361662 87.014769 
L 69.548576 82.551459 
L 66.61347 78.309901 
L 63.564623 74.313708 
L 60.410312 70.586495 
L 57.158816 67.151874 
L 53.818411 64.033459 
L 52.117455 62.600208 
M 85.533592 176.40512 
L 86.782827 172.093882 
L 87.783413 167.552532 
L 88.541151 162.80541 
L 89.061846 157.876856 
L 89.351299 152.79121 
L 89.415313 147.572814 
L 89.259692 142.246006 
L 88.890237 136.835127 
L 88.312751 131.364518 
L 87.533038 125.858518 
L 86.5569 120.341468 
L 85.39014 114.837709 
L 84.03856 109.371579 
L 82.507963 103.96742 
L 80.804152 98.649572 
L 78.93293 93.442375 
L 76.9001 88.370169 
L 74.711463 83.457295 
L 72.372824 78.728092 
L 69.889984 74.206901 
L 67.268747 69.918062 
L 64.514914 65.885916 
L 61.63429 62.134802 
L 58.632676 58.689061 
L 57.088312 57.088312 
M 78.610635 173.728725 
L 80.297076 169.569004 
L 81.759879 165.154794 
L 83.002309 160.510905 
L 84.027634 155.662145 
L 84.839118 150.633321 
L 85.440028 145.449243 
L 85.83363 140.134718 
L 86.02319 134.714554 
L 86.011974 129.213561 
L 85.803249 123.656546 
L 85.40028 118.068317 
L 84.806333 112.473683 
L 84.024674 106.897452 
L 83.058571 101.364433 
L 81.911288 95.899433 
L 80.586091 90.527262 
L 79.086247 85.272726 
L 77.415023 80.160636 
L 75.575683 75.215798 
L 73.571494 70.463021 
L 71.405722 65.927114 
L 69.081633 61.632884 
L 66.602493 57.60514 
L 63.971569 53.868691 
L 62.600208 52.117455 
M 72 170.353829 
L 74.105725 166.38983 
L 76.015199 162.149672 
L 77.729118 157.658367 
L 79.248176 152.940928 
L 80.573067 148.022368 
L 81.704487 142.927699 
L 82.64313 137.681934 
L 83.389691 132.310086 
L 83.944864 126.837167 
L 84.309344 121.288191 
L 84.483826 115.688169 
L 84.469005 110.062116 
L 84.265575 104.435042 
L 83.874231 98.831962 
L 83.295668 93.277887 
L 82.53058 87.797831 
L 81.579662 82.416807 
L 80.443609 77.159826 
L 79.123115 72.051902 
L 77.618875 67.118047 
L 75.931584 62.383274 
L 74.061937 57.872596 
L 72.010628 53.611026 
L 69.778352 49.623575 
L 68.594568 47.740462 
L 68.594568 47.740462 
" clip-path="url(#p0efe31f188)" style="fill: none; stroke: #d62728; stroke-width: 0.5"/>
    <path d="M 72 170.353829 
L 74.121533 166.38062 
L 76.07756 162.113338 
L 77.867466 157.577759 
L 79.490639 152.799657 
L 80.946465 147.804807 
L 82.234331 142.618985 
L 83.353622 137.267965 
L 84.303725 131.777523 
L 85.084027 126.173432 
L 85.693914 120.481469 
L 86.132773 114.727408 
L 86.39999 108.937025 
L 86.494951 103.136093 
L 86.417043 97.350389 
L 86.165653 91.605687 
L 85.740166 85.927762 
L 85.13997 80.342389 
L 84.36445 74.875342 
L 83.412993 69.552398 
L 82.284986 64.399331 
L 80.979815 59.441916 
L 79.496866 54.705928 
L 77.835526 50.217141 
L 75.995181 46.001332 
L 75.00769 44.003848 
M 65.310629 165.979459 
L 67.85816 162.266385 
L 70.271245 158.243694 
L 72.546526 153.936891 
L 74.680645 149.371483 
L 76.670243 144.572976 
L 78.511964 139.566875 
L 80.202449 134.378688 
L 81.738339 129.03392 
L 83.116278 123.558077 
L 84.332907 117.976665 
L 85.384869 112.315192 
L 86.268805 106.599162 
L 86.981357 100.854081 
L 87.519167 95.105457 
L 87.878878 89.378795 
L 88.057132 83.699601 
L 88.05057 78.093382 
L 87.855835 72.585643 
L 87.469568 67.201891 
L 86.888413 61.967632 
L 86.10901 56.908371 
L 85.128002 52.049616 
L 83.94203 47.416872 
L 82.547738 43.035645 
L 81.771422 40.947321 
M 59.147322 160.890603 
L 62.089349 157.483141 
L 64.929432 153.753787 
L 67.661522 149.727486 
L 70.279565 145.429186 
L 72.77751 140.883831 
L 75.149305 136.116369 
L 77.388898 131.151745 
L 79.490238 126.014906 
L 81.447271 120.730797 
L 83.253948 115.324366 
L 84.904214 109.820557 
L 86.39202 104.244319 
L 87.711312 98.620595 
L 88.856039 92.974334 
L 89.82015 87.33048 
L 90.597591 81.71398 
L 91.182312 76.149781 
L 91.568261 70.662828 
L 91.749384 65.278068 
L 91.719632 60.020447 
L 91.472951 54.914911 
L 91.003291 49.986406 
L 90.304598 45.259878 
L 89.370821 40.760275 
L 88.813885 38.603365 
M 53.586031 155.149973 
L 56.886217 152.089823 
L 60.118065 148.698908 
L 63.27291 145.001332 
L 66.342087 141.021196 
L 69.316932 136.782604 
L 72.188779 132.309658 
L 74.948966 127.626461 
L 77.588826 122.757117 
L 80.099695 117.725728 
L 82.47291 112.556396 
L 84.699804 107.273225 
L 86.771714 101.900317 
L 88.679974 96.461776 
L 90.415921 90.981704 
L 91.97089 85.484203 
L 93.336216 79.993378 
L 94.503235 74.53333 
L 95.463281 69.128163 
L 96.207691 63.801978 
L 96.727799 58.57888 
L 97.014942 53.482971 
L 97.060454 48.538354 
L 96.855671 43.769131 
L 96.391928 39.199406 
L 96.06024 36.996887 
M 48.695286 148.82831 
L 52.312914 146.152886 
L 55.896553 143.141324 
L 59.435036 139.816609 
L 62.917196 136.201731 
L 66.331868 132.319675 
L 69.667885 128.193428 
L 72.91408 123.845978 
L 76.059287 119.300312 
L 79.09234 114.579416 
L 82.002072 109.706278 
L 84.777317 104.703884 
L 87.406908 99.595223 
L 89.879679 94.40328 
L 92.184464 89.151043 
L 94.310096 83.861498 
L 96.245409 78.557633 
L 97.979236 73.262436 
L 99.500412 67.998892 
L 100.797768 62.789988 
L 101.86014 57.658713 
L 102.676361 52.628053 
L 103.235264 47.720994 
L 103.525683 42.960525 
L 103.536452 38.369632 
L 103.433478 36.144959 
M 44.535358 142.003517 
L 48.425828 139.745488 
L 52.31704 137.149504 
L 56.195464 134.23718 
L 60.047572 131.030126 
L 63.859833 127.549957 
L 67.61872 123.818284 
L 71.310702 119.856722 
L 74.922252 115.686882 
L 78.439839 111.330378 
L 81.849936 106.808822 
L 85.139013 102.143827 
L 88.29354 97.357006 
L 91.299989 92.469971 
L 94.144832 87.504337 
L 96.814538 82.481714 
L 99.295578 77.423716 
L 101.574425 72.351957 
L 103.637548 67.288048 
L 105.471419 62.253603 
L 107.062508 57.270234 
L 108.397287 52.359554 
L 109.462227 47.543176 
L 110.243798 42.842713 
L 110.728472 38.279777 
L 110.855244 36.056636 
M 41.157509 134.759697 
L 45.272891 132.946587 
L 49.42376 130.797287 
L 53.594388 128.331795 
L 57.769051 125.570106 
L 61.932022 122.532219 
L 66.067576 119.23813 
L 70.159986 115.707836 
L 74.193526 111.961336 
L 78.152471 108.018625 
L 82.021095 103.899701 
L 85.783671 99.624562 
L 89.424475 95.213203 
L 92.927779 90.685623 
L 96.277857 86.061819 
L 99.458985 81.361787 
L 102.455436 76.605526 
L 105.251485 71.813031 
L 107.831404 67.0043 
L 110.179468 62.199331 
L 112.279952 57.41812 
L 114.11713 52.680665 
L 115.675275 48.006963 
L 116.938661 43.41701 
L 117.891563 38.930805 
L 118.246668 36.732856 
L 118.246668 36.732856 
" clip-path="url(#p0efe31f188)" style="fill: none; stroke: #98df8a; stroke-width: 0.5"/>
    <path d="M 118.246668 36.732856 
L 117.444247 41.120656 
L 116.302751 45.54629 
L 114.838787 49.992991 
L 113.068963 54.443992 
L 111.009887 58.882526 
L 108.678168 63.291826 
L 106.090413 67.655126 
L 103.26323 71.955658 
L 100.213228 76.176656 
L 96.957014 80.301353 
L 93.511196 84.312981 
L 89.892382 88.194775 
L 86.11718 91.929968 
L 82.202199 95.501792 
L 78.164045 98.89348 
L 74.019328 102.088266 
L 69.784655 105.069383 
L 65.476634 107.820064 
L 61.111873 110.323543 
L 56.70698 112.563051 
L 52.278564 114.521824 
L 47.843231 116.183093 
L 43.417591 117.530091 
L 39.01825 118.546053 
L 36.833632 118.924655 
M 126.082655 38.307693 
L 124.79882 42.578957 
L 123.173762 46.849143 
L 121.225846 51.103477 
L 118.973439 55.327183 
L 116.434907 59.505483 
L 113.628614 63.623602 
L 110.572929 67.666764 
L 107.286215 71.620193 
L 103.786839 75.469112 
L 100.093167 79.198745 
L 96.223566 82.794316 
L 92.1964 86.241049 
L 88.030036 89.524168 
L 83.742839 92.628897 
L 79.353176 95.540458 
L 74.879413 98.244077 
L 70.339914 100.724977 
L 65.753048 102.968382 
L 61.137178 104.959516 
L 56.510671 106.683602 
L 51.891894 108.125864 
L 47.299211 109.271527 
L 42.75099 110.105814 
L 38.265595 110.613948 
L 36.052197 110.741091 
M 133.695808 40.741354 
L 131.946506 44.84344 
L 129.858285 48.905543 
L 127.45103 52.915061 
L 124.74463 56.85939 
L 121.758971 60.725928 
L 118.51394 64.50207 
L 115.029424 68.175216 
L 111.325311 71.73276 
L 107.421487 75.162101 
L 103.33784 78.450635 
L 99.094256 81.58576 
L 94.710623 84.554872 
L 90.206827 87.345368 
L 85.602755 89.944646 
L 80.918296 92.340102 
L 76.173334 94.519133 
L 71.387759 96.469137 
L 66.581456 98.17751 
L 61.774314 99.631649 
L 56.986217 100.818952 
L 52.237055 101.726815 
L 47.546714 102.342635 
L 42.93508 102.65381 
L 38.422042 102.647736 
L 36.208711 102.521792 
L 36.208711 102.521792 
" clip-path="url(#p0efe31f188)" style="fill: none; stroke: #aec7e8; stroke-width: 0.5"/>
    <path d="M 140.99231 44.003848 
L 140.022992 45.943807 
L 139.134428 47.844981 
L 138.325793 49.706512 
L 137.596265 51.527542 
L 136.945019 53.307213 
L 136.371232 55.044668 
L 135.874081 56.739048 
L 135.452741 58.389496 
L 135.10639 59.995154 
L 134.834204 61.555163 
L 134.63536 63.068667 
L 134.509033 64.534808 
L 134.4544 65.952726 
L 134.470638 67.321566 
L 134.556923 68.640468 
L 134.712432 69.908575 
L 134.936341 71.125029 
L 135.227827 72.288972 
L 135.586065 73.399547 
L 136.010233 74.455895 
L 136.499507 75.457159 
L 137.053064 76.402481 
L 137.670079 77.291002 
L 138.349729 78.121866 
L 139.091192 78.894214 
L 139.893642 79.607189 
L 140.756257 80.259932 
L 141.678214 80.851586 
L 142.658687 81.381293 
L 143.696855 81.848195 
L 144.791894 82.251434 
L 145.942979 82.590153 
L 147.149288 82.863493 
L 148.409997 83.070597 
L 149.724282 83.210607 
L 151.09132 83.282664 
L 152.510287 83.285912 
L 153.980359 83.219492 
L 155.500714 83.082546 
L 157.070528 82.874217 
L 158.688977 82.593647 
L 160.355237 82.239978 
L 162.068485 81.812352 
L 163.827898 81.309911 
L 165.632651 80.731797 
L 167.481922 80.077153 
L 169.374887 79.345121 
L 171.310722 78.534842 
L 173.288604 77.645459 
M 147.882245 48.05497 
L 146.703846 49.875443 
L 145.609937 51.666131 
L 144.599798 53.426094 
L 143.672705 55.154392 
L 142.827936 56.850085 
L 142.06477 58.512234 
L 141.382485 60.139899 
L 140.780357 61.732139 
L 140.257667 63.288014 
L 139.81369 64.806586 
L 139.447705 66.286913 
L 139.158991 67.728057 
L 138.946825 69.129077 
L 138.810485 70.489033 
L 138.749249 71.806985 
L 138.762395 73.081994 
L 138.8492 74.313119 
L 139.008944 75.499421 
L 139.240903 76.63996 
L 139.544356 77.733795 
L 139.918581 78.779988 
L 140.362855 79.777597 
L 140.876457 80.725684 
L 141.458664 81.623308 
L 142.108755 82.46953 
L 142.826007 83.263408 
L 143.609698 84.004005 
L 144.459107 84.690379 
L 145.373511 85.321591 
L 146.352188 85.896701 
L 147.394416 86.414768 
L 148.499473 86.874854 
L 149.666637 87.276018 
L 150.895186 87.61732 
L 152.184398 87.897821 
L 153.533551 88.11658 
L 154.941923 88.272658 
L 156.408791 88.365115 
L 157.933434 88.39301 
L 159.515129 88.355404 
L 161.153155 88.251357 
L 162.84679 88.079929 
L 164.595311 87.840181 
L 166.397996 87.531172 
L 168.254124 87.151962 
L 170.162972 86.701612 
L 172.123818 86.179181 
L 174.13594 85.58373 
L 176.198617 84.914319 
" clip-path="url(#p0efe31f188)" style="fill: none; stroke: #aec7e8; stroke-width: 0.5"/>
    <path d="M 178.302132 92.456183 
L 176.106457 92.923493 
L 173.82604 93.373729 
L 171.464478 93.806842 
L 169.025365 94.222782 
L 166.512297 94.621501 
L 163.92887 95.00295 
L 161.278679 95.36708 
L 158.56532 95.713843 
L 155.792387 96.043188 
L 152.963477 96.355068 
L 150.082184 96.649434 
L 147.152105 96.926236 
L 144.176835 97.185425 
L 141.159969 97.426954 
L 138.105103 97.650772 
L 135.015832 97.856832 
L 131.895752 98.045083 
L 128.748458 98.215477 
L 125.577545 98.367966 
L 122.38661 98.5025 
L 119.179247 98.619031 
L 115.959052 98.717509 
L 112.729621 98.797886 
L 109.494549 98.860113 
L 106.257431 98.90414 
L 103.021862 98.929919 
L 99.79144 98.937402 
L 96.569758 98.926538 
L 93.360412 98.89728 
L 90.166998 98.849578 
L 86.993111 98.783384 
L 83.842347 98.698648 
L 80.718301 98.595322 
L 77.624569 98.473356 
L 74.564746 98.332703 
L 71.542427 98.173312 
L 68.561208 97.995135 
L 65.624685 97.798124 
L 62.736453 97.582229 
L 59.900107 97.347401 
L 57.119243 97.093591 
L 54.397456 96.820751 
L 51.738342 96.528832 
L 49.145497 96.217784 
L 46.622515 95.887559 
L 44.172992 95.538108 
L 41.800524 95.169383 
L 39.508706 94.781333 
L 37.301134 94.37391 
" clip-path="url(#p0efe31f188)" style="fill: none; stroke: #1f77b4; stroke-width: 0.5"/>
    <path d="M 179.574274 100.181864 
L 177.412246 100.386938 
L 175.308689 100.524304 
L 173.26425 100.595169 
L 171.279572 100.60074 
L 169.3553 100.542224 
L 167.49208 100.420828 
L 165.690557 100.237759 
L 163.951376 99.994224 
L 162.275181 99.691431 
L 160.662618 99.330586 
L 159.114331 98.912896 
L 157.630966 98.439569 
L 156.213167 97.911812 
L 154.86158 97.330832 
L 153.576849 96.697835 
L 152.359619 96.014029 
L 151.210536 95.280621 
L 150.130245 94.498817 
L 149.119389 93.669826 
L 148.178615 92.794854 
L 147.308567 91.875109 
L 146.509891 90.911796 
L 145.783231 89.906124 
L 145.129232 88.8593 
L 144.548539 87.77253 
L 144.041798 86.647021 
L 143.609652 85.483982 
L 143.252748 84.284617 
L 142.97173 83.050136 
L 142.767242 81.781745 
L 142.639931 80.480651 
L 142.590441 79.14806 
L 142.619417 77.785181 
L 142.727504 76.39322 
L 142.915347 74.973384 
L 143.183591 73.526881 
L 143.53288 72.054917 
L 143.963861 70.5587 
L 144.477177 69.039436 
L 145.073475 67.498333 
L 145.753398 65.936597 
L 146.517591 64.355436 
L 147.366701 62.756058 
L 148.301371 61.139668 
L 149.322247 59.507474 
L 150.429974 57.860683 
L 151.625196 56.200502 
L 152.908559 54.528139 
L 154.280708 52.8448 
M 180 108 
L 177.828557 107.969171 
L 175.722731 107.877527 
L 173.683028 107.726336 
L 171.709955 107.516864 
L 169.804021 107.25038 
L 167.965731 106.928148 
L 166.195593 106.551438 
L 164.494115 106.121514 
L 162.861804 105.639646 
L 161.299166 105.107099 
L 159.80671 104.52514 
L 158.384942 103.895036 
L 157.034369 103.218055 
L 155.755499 102.495463 
L 154.54884 101.728527 
L 153.414897 100.918515 
L 152.354179 100.066693 
L 151.367192 99.174328 
L 150.454444 98.242687 
L 149.616442 97.273037 
L 148.853694 96.266645 
L 148.166705 95.224778 
L 147.555985 94.148703 
L 147.02204 93.039687 
L 146.565376 91.898997 
L 146.186502 90.7279 
L 145.885925 89.527663 
L 145.664151 88.299552 
L 145.521688 87.044835 
L 145.459043 85.764779 
L 145.476724 84.460651 
L 145.575238 83.133717 
L 145.755091 81.785245 
L 146.016791 80.416501 
L 146.360846 79.028753 
L 146.787762 77.623267 
L 147.298047 76.201311 
L 147.892208 74.764152 
L 148.570752 73.313055 
L 149.334186 71.849289 
L 150.183018 70.374121 
L 151.117754 68.888816 
L 152.138903 67.394643 
L 153.246971 65.892868 
L 154.442465 64.384759 
L 155.725893 62.871581 
L 157.097762 61.354603 
L 158.558579 59.83509 
L 160.108851 58.314311 
" clip-path="url(#p0efe31f188)" style="fill: none; stroke: #1f77b4; stroke-width: 0.5"/>
   </g>
   <g id="PathCollection_1">
    <defs>
     <path id="C0_0_ffda4346ce" d="M 0 5 
C 1.326016 5 2.597899 4.473168 3.535534 3.535534 
C 4.473168 2.597899 5 1.326016 5 -0 
C 5 -1.326016 4.473168 -2.597899 3.535534 -3.535534 
C 2.597899 -4.473168 1.326016 -5 0 -5 
C -1.326016 -5 -2.597899 -4.473168 -3.535534 -3.535534 
C -4.473168 -2.597899 -5 -1.326016 -5 0 
C -5 1.326016 -4.473168 2.597899 -3.535534 3.535534 
C -2.597899 4.473168 -1.326016 5 0 5 
z
"/>
    </defs>
    <g clip-path="url(#p0efe31f188)">
     <use xlink:href="#C0_0_ffda4346ce" x="174.842491" y="81.240303" style="fill: #1f77b4; stroke: #000000"/>
    </g>
    <g clip-path="url(#p0efe31f188)">
     <use xlink:href="#C0_0_ffda4346ce" x="140.99231" y="44.003848" style="fill: #aec7e8; stroke: #000000"/>
    </g>
    <g clip-path="url(#p0efe31f188)">
     <use xlink:href="#C0_0_ffda4346ce" x="75.00769" y="44.003848" style="fill: #ff7f0e; stroke: #000000"/>
    </g>
    <g clip-path="url(#p0efe31f188)">
     <use xlink:href="#C0_0_ffda4346ce" x="39.959941" y="84.451107" style="fill: #ffbb78; stroke: #000000"/>
    </g>
    <g clip-path="url(#p0efe31f188)">
     <use xlink:href="#C0_0_ffda4346ce" x="36.326022" y="114.844035" style="fill: #2ca02c; stroke: #000000"/>
    </g>
    <g clip-path="url(#p0efe31f188)">
     <use xlink:href="#C0_0_ffda4346ce" x="53.586031" y="155.149973" style="fill: #98df8a; stroke: #000000"/>
    </g>
    <g clip-path="url(#p0efe31f188)">
     <use xlink:href="#C0_0_ffda4346ce" x="114.844035" y="179.673978" style="fill: #d62728; stroke: #000000"/>
    </g>
    <g clip-path="url(#p0efe31f188)">
     <use xlink:href="#C0_0_ffda4346ce" x="164.595823" y="152.507447" style="fill: #ff9896; stroke: #000000"/>
    </g>
    <g clip-path="url(#p0efe31f188)">
     <use xlink:href="#C0_0_ffda4346ce" x="177.970433" y="124.974643" style="fill: #9467bd; stroke: #000000"/>
    </g>
   </g>
  </g>
 </g>
 <defs>
  <clipPath id="p0efe31f188">
   <rect x="7.2" y="7.2" width="201.6" height="201.6"/>
  </clipPath>
 </defs>
</svg>
