<?xml version="1.0" encoding="UTF-8" standalone="no"?>
<!DOCTYPE svg PUBLIC "-//W3C//DTD SVG 1.1//EN"
 "http://www.w3.org/Graphics/SVG/1.1/DTD/svg11.dtd">
<!-- Generated by graphviz version 13.1.0 (20250701.0955)
 -->
<!-- Pages: 1 -->
<svg width="827pt" height="1196pt"
 viewBox="0.00 0.00 827.00 1196.00" xmlns="http://www.w3.org/2000/svg" xmlns:xlink="http://www.w3.org/1999/xlink">
<g id="graph0" class="graph" transform="scale(1 1) rotate(0) translate(4 1192)">
<polygon fill="white" stroke="none" points="-4,4 -4,-1192 823.25,-1192 823.25,4 -4,4"/>
<!-- 7799524449483414194 -->
<g id="node1" class="node">
<title>7799524449483414194</title>
<ellipse fill="none" stroke="black" cx="467.25" cy="-18" rx="33.8" ry="18"/>
<text xml:space="preserve" text-anchor="middle" x="467.25" y="-12.2" font-family="Helvetica,sans-Serif" font-size="14.00">config</text>
</g>
<!-- 6443218739039219109 -->
<g id="node2" class="node">
<title>6443218739039219109</title>
<ellipse fill="none" stroke="black" cx="557.25" cy="-18" rx="38.67" ry="18"/>
<text xml:space="preserve" text-anchor="middle" x="557.25" y="-12.2" font-family="Helvetica,sans-Serif" font-size="14.00">context</text>
</g>
<!-- &#45;8980991130135435991 -->
<g id="node3" class="node">
<title>&#45;8980991130135435991</title>
<polygon fill="none" stroke="black" points="434.5,-108 0,-108 0,-72 434.5,-72 434.5,-108"/>
<text xml:space="preserve" text-anchor="middle" x="217.25" y="-84.2" font-family="Helvetica,sans-Serif" font-size="14.00">Step load &#45;&gt; MESSAGEix&#45;GLOBIOM 2.0&#45;M&#45;R12 Investment/baseline</text>
</g>
<!-- 6443218739039219109&#45;&gt;&#45;8980991130135435991 -->
<g id="edge2" class="edge">
<title>6443218739039219109&#45;&gt;&#45;8980991130135435991</title>
<path fill="none" stroke="black" d="M528.16,-30.38C522.29,-32.43 516.12,-34.42 510.25,-36 458.86,-49.84 401.41,-61.12 351.09,-69.66"/>
<polygon fill="black" stroke="black" points="350.57,-66.2 341.29,-71.3 351.73,-73.1 350.57,-66.2"/>
</g>
<!-- &#45;8924126341223362347 -->
<g id="node5" class="node">
<title>&#45;8924126341223362347</title>
<polygon fill="none" stroke="black" points="472.25,-252 24.25,-252 24.25,-216 472.25,-216 472.25,-252"/>
<text xml:space="preserve" text-anchor="middle" x="248.25" y="-228.2" font-family="Helvetica,sans-Serif" font-size="14.00">Step main() &#45;&gt; MESSAGEix&#45;GLOBIOM 2.0&#45;M&#45;R12 Investment/baseline</text>
</g>
<!-- 6443218739039219109&#45;&gt;&#45;8924126341223362347 -->
<g id="edge4" class="edge">
<title>6443218739039219109&#45;&gt;&#45;8924126341223362347</title>
<path fill="none" stroke="black" d="M536.82,-33.78C522.51,-44.25 503.02,-58.74 486.25,-72 466.7,-87.46 463.34,-93.24 443.25,-108 391.11,-146.3 327.5,-185.82 287.42,-209.91"/>
<polygon fill="black" stroke="black" points="285.84,-206.77 279.06,-214.91 289.44,-212.78 285.84,-206.77"/>
</g>
<!-- &#45;7372724435138152121 -->
<g id="node7" class="node">
<title>&#45;7372724435138152121</title>
<polygon fill="none" stroke="black" points="510.38,-396 6.13,-396 6.13,-360 510.38,-360 510.38,-396"/>
<text xml:space="preserve" text-anchor="middle" x="258.25" y="-372.2" font-family="Helvetica,sans-Serif" font-size="14.00">Step check_context() &#45;&gt; MESSAGEix&#45;GLOBIOM 2.0&#45;M&#45;R12 Investment/baseline</text>
</g>
<!-- 6443218739039219109&#45;&gt;&#45;7372724435138152121 -->
<g id="edge8" class="edge">
<title>6443218739039219109&#45;&gt;&#45;7372724435138152121</title>
<path fill="none" stroke="black" d="M545.22,-35.49C538.29,-45.61 529.87,-59.08 524.25,-72 507.91,-109.57 500.25,-120.03 500.25,-161 500.25,-161 500.25,-161 500.25,-235 500.25,-301.31 431.83,-337.25 367.74,-356.37"/>
<polygon fill="black" stroke="black" points="366.79,-353 358.14,-359.11 368.71,-359.73 366.79,-353"/>
</g>
<!-- 8319371600140249547 -->
<g id="node9" class="node">
<title>8319371600140249547</title>
<polygon fill="none" stroke="black" points="548.38,-540 44.13,-540 44.13,-504 548.38,-504 548.38,-540"/>
<text xml:space="preserve" text-anchor="middle" x="296.25" y="-516.2" font-family="Helvetica,sans-Serif" font-size="14.00">Step check_context() &#45;&gt; MESSAGEix&#45;GLOBIOM 2.0&#45;M&#45;R12 Investment/baseline</text>
</g>
<!-- 6443218739039219109&#45;&gt;8319371600140249547 -->
<g id="edge10" class="edge">
<title>6443218739039219109&#45;&gt;8319371600140249547</title>
<path fill="none" stroke="black" d="M553.41,-36.39C547.85,-63.06 538.25,-115.73 538.25,-161 538.25,-161 538.25,-161 538.25,-379 538.25,-445.31 469.83,-481.25 405.74,-500.37"/>
<polygon fill="black" stroke="black" points="404.79,-497 396.14,-503.11 406.71,-503.73 404.79,-497"/>
</g>
<!-- 7458948848249678692 -->
<g id="node11" class="node">
<title>7458948848249678692</title>
<polygon fill="none" stroke="black" points="586.38,-684 82.13,-684 82.13,-648 586.38,-648 586.38,-684"/>
<text xml:space="preserve" text-anchor="middle" x="334.25" y="-660.2" font-family="Helvetica,sans-Serif" font-size="14.00">Step check_context() &#45;&gt; MESSAGEix&#45;GLOBIOM 2.0&#45;M&#45;R12 Investment/baseline</text>
</g>
<!-- 6443218739039219109&#45;&gt;7458948848249678692 -->
<g id="edge14" class="edge">
<title>6443218739039219109&#45;&gt;7458948848249678692</title>
<path fill="none" stroke="black" d="M561.09,-36.39C566.65,-63.06 576.25,-115.73 576.25,-161 576.25,-161 576.25,-161 576.25,-523 576.25,-589.31 507.83,-625.25 443.74,-644.37"/>
<polygon fill="black" stroke="black" points="442.79,-641 434.14,-647.11 444.71,-647.73 442.79,-641"/>
</g>
<!-- &#45;1674456628213944627 -->
<g id="node13" class="node">
<title>&#45;1674456628213944627</title>
<polygon fill="none" stroke="black" points="624.25,-828 104.25,-828 104.25,-792 624.25,-792 624.25,-828"/>
<text xml:space="preserve" text-anchor="middle" x="364.25" y="-804.2" font-family="Helvetica,sans-Serif" font-size="14.00">Step check_context() &#45;&gt; MESSAGEix&#45;GLOBIOM 2.0&#45;M&#45;R12 Investment/coc_added</text>
</g>
<!-- 6443218739039219109&#45;&gt;&#45;1674456628213944627 -->
<g id="edge17" class="edge">
<title>6443218739039219109&#45;&gt;&#45;1674456628213944627</title>
<path fill="none" stroke="black" d="M568.78,-35.62C585.44,-61.28 614.25,-112.65 614.25,-161 614.25,-161 614.25,-161 614.25,-667 614.25,-733.91 545.71,-769.68 480.41,-788.58"/>
<polygon fill="black" stroke="black" points="479.71,-785.14 471.01,-791.18 481.58,-791.89 479.71,-785.14"/>
</g>
<!-- &#45;6304523326375149095 -->
<g id="node15" class="node">
<title>&#45;6304523326375149095</title>
<polygon fill="none" stroke="black" points="661.88,-972 196.62,-972 196.62,-936 661.88,-936 661.88,-972"/>
<text xml:space="preserve" text-anchor="middle" x="429.25" y="-948.2" font-family="Helvetica,sans-Serif" font-size="14.00">Step solve() &#45;&gt; MESSAGEix&#45;GLOBIOM 2.0&#45;M&#45;R12 Investment/coc_added</text>
</g>
<!-- 6443218739039219109&#45;&gt;&#45;6304523326375149095 -->
<g id="edge20" class="edge">
<title>6443218739039219109&#45;&gt;&#45;6304523326375149095</title>
<path fill="none" stroke="black" d="M576.02,-33.81C603.7,-57.48 652.25,-106.72 652.25,-161 652.25,-161 652.25,-161 652.25,-811 652.25,-875.95 584.12,-912.48 523.17,-932.17"/>
<polygon fill="black" stroke="black" points="522.25,-928.79 513.73,-935.09 524.32,-935.48 522.25,-928.79"/>
</g>
<!-- &#45;1430140620592831045 -->
<g id="node17" class="node">
<title>&#45;1430140620592831045</title>
<polygon fill="none" stroke="black" points="819.25,-1116 299.25,-1116 299.25,-1080 819.25,-1080 819.25,-1116"/>
<text xml:space="preserve" text-anchor="middle" x="559.25" y="-1092.2" font-family="Helvetica,sans-Serif" font-size="14.00">Step check_context() &#45;&gt; MESSAGEix&#45;GLOBIOM 2.0&#45;M&#45;R12 Investment/coc_added</text>
</g>
<!-- 6443218739039219109&#45;&gt;&#45;1430140620592831045 -->
<g id="edge23" class="edge">
<title>6443218739039219109&#45;&gt;&#45;1430140620592831045</title>
<path fill="none" stroke="black" d="M583.21,-31.8C621.91,-52.93 690.25,-99.02 690.25,-161 690.25,-161 690.25,-161 690.25,-955 690.25,-1008.03 640.29,-1049.72 602.07,-1073.85"/>
<polygon fill="black" stroke="black" points="600.65,-1070.62 593.94,-1078.81 604.3,-1076.59 600.65,-1070.62"/>
</g>
<!-- &#45;4811350742205681194 -->
<g id="node4" class="node">
<title>&#45;4811350742205681194</title>
<ellipse fill="none" stroke="black" cx="232.25" cy="-162" rx="29.41" ry="18"/>
<text xml:space="preserve" text-anchor="middle" x="232.25" y="-156.2" font-family="Helvetica,sans-Serif" font-size="14.00">base</text>
</g>
<!-- &#45;8980991130135435991&#45;&gt;&#45;4811350742205681194 -->
<g id="edge1" class="edge">
<title>&#45;8980991130135435991&#45;&gt;&#45;4811350742205681194</title>
<path fill="none" stroke="black" d="M220.96,-108.3C222.54,-115.68 224.42,-124.48 226.2,-132.75"/>
<polygon fill="black" stroke="black" points="222.75,-133.37 228.27,-142.42 229.59,-131.9 222.75,-133.37"/>
</g>
<!-- &#45;4811350742205681194&#45;&gt;&#45;8924126341223362347 -->
<g id="edge5" class="edge">
<title>&#45;4811350742205681194&#45;&gt;&#45;8924126341223362347</title>
<path fill="none" stroke="black" d="M236.21,-180.3C237.89,-187.68 239.9,-196.48 241.79,-204.75"/>
<polygon fill="black" stroke="black" points="238.36,-205.45 244,-214.42 245.19,-203.89 238.36,-205.45"/>
</g>
<!-- 263473185099061385 -->
<g id="node6" class="node">
<title>263473185099061385</title>
<ellipse fill="none" stroke="black" cx="253.25" cy="-306" rx="99.12" ry="18"/>
<text xml:space="preserve" text-anchor="middle" x="253.25" y="-300.2" font-family="Helvetica,sans-Serif" font-size="14.00">wacc_cf reg generated</text>
</g>
<!-- &#45;8924126341223362347&#45;&gt;263473185099061385 -->
<g id="edge3" class="edge">
<title>&#45;8924126341223362347&#45;&gt;263473185099061385</title>
<path fill="none" stroke="black" d="M249.49,-252.3C250.01,-259.59 250.63,-268.27 251.21,-276.46"/>
<polygon fill="black" stroke="black" points="247.72,-276.66 251.92,-286.39 254.7,-276.16 247.72,-276.66"/>
</g>
<!-- 263473185099061385&#45;&gt;&#45;7372724435138152121 -->
<g id="edge7" class="edge">
<title>263473185099061385&#45;&gt;&#45;7372724435138152121</title>
<path fill="none" stroke="black" d="M254.49,-324.3C255.01,-331.59 255.63,-340.27 256.21,-348.46"/>
<polygon fill="black" stroke="black" points="252.72,-348.66 256.92,-358.39 259.7,-348.16 252.72,-348.66"/>
</g>
<!-- 3628086215731728229 -->
<g id="node8" class="node">
<title>3628086215731728229</title>
<ellipse fill="none" stroke="black" cx="277.25" cy="-450" rx="59.14" ry="18"/>
<text xml:space="preserve" text-anchor="middle" x="277.25" y="-444.2" font-family="Helvetica,sans-Serif" font-size="14.00">cf generated</text>
</g>
<!-- &#45;7372724435138152121&#45;&gt;3628086215731728229 -->
<g id="edge6" class="edge">
<title>&#45;7372724435138152121&#45;&gt;3628086215731728229</title>
<path fill="none" stroke="black" d="M262.95,-396.3C264.97,-403.76 267.39,-412.68 269.66,-421.03"/>
<polygon fill="black" stroke="black" points="266.21,-421.7 272.21,-430.43 272.97,-419.87 266.21,-421.7"/>
</g>
<!-- 3628086215731728229&#45;&gt;8319371600140249547 -->
<g id="edge11" class="edge">
<title>3628086215731728229&#45;&gt;8319371600140249547</title>
<path fill="none" stroke="black" d="M281.95,-468.3C283.97,-475.76 286.39,-484.68 288.66,-493.03"/>
<polygon fill="black" stroke="black" points="285.21,-493.7 291.21,-502.43 291.97,-491.87 285.21,-493.7"/>
</g>
<!-- &#45;7393154031849897752 -->
<g id="node10" class="node">
<title>&#45;7393154031849897752</title>
<ellipse fill="none" stroke="black" cx="315.25" cy="-594" rx="72.31" ry="18"/>
<text xml:space="preserve" text-anchor="middle" x="315.25" y="-588.2" font-family="Helvetica,sans-Serif" font-size="14.00">wacc generated</text>
</g>
<!-- 8319371600140249547&#45;&gt;&#45;7393154031849897752 -->
<g id="edge9" class="edge">
<title>8319371600140249547&#45;&gt;&#45;7393154031849897752</title>
<path fill="none" stroke="black" d="M300.95,-540.3C302.97,-547.76 305.39,-556.68 307.66,-565.03"/>
<polygon fill="black" stroke="black" points="304.21,-565.7 310.21,-574.43 310.97,-563.87 304.21,-565.7"/>
</g>
<!-- &#45;7393154031849897752&#45;&gt;7458948848249678692 -->
<g id="edge13" class="edge">
<title>&#45;7393154031849897752&#45;&gt;7458948848249678692</title>
<path fill="none" stroke="black" d="M319.95,-612.3C321.97,-619.76 324.39,-628.68 326.66,-637.03"/>
<polygon fill="black" stroke="black" points="323.21,-637.7 329.21,-646.43 329.97,-635.87 323.21,-637.7"/>
</g>
<!-- &#45;7509216134530477536 -->
<g id="node12" class="node">
<title>&#45;7509216134530477536</title>
<ellipse fill="none" stroke="black" cx="349.25" cy="-738" rx="84.49" ry="18"/>
<text xml:space="preserve" text-anchor="middle" x="349.25" y="-732.2" font-family="Helvetica,sans-Serif" font-size="14.00">inv_cost generated</text>
</g>
<!-- 7458948848249678692&#45;&gt;&#45;7509216134530477536 -->
<g id="edge12" class="edge">
<title>7458948848249678692&#45;&gt;&#45;7509216134530477536</title>
<path fill="none" stroke="black" d="M337.96,-684.3C339.54,-691.68 341.42,-700.48 343.2,-708.75"/>
<polygon fill="black" stroke="black" points="339.75,-709.37 345.27,-718.42 346.59,-707.9 339.75,-709.37"/>
</g>
<!-- &#45;7509216134530477536&#45;&gt;&#45;1674456628213944627 -->
<g id="edge16" class="edge">
<title>&#45;7509216134530477536&#45;&gt;&#45;1674456628213944627</title>
<path fill="none" stroke="black" d="M352.96,-756.3C354.54,-763.68 356.42,-772.48 358.2,-780.75"/>
<polygon fill="black" stroke="black" points="354.75,-781.37 360.27,-790.42 361.59,-779.9 354.75,-781.37"/>
</g>
<!-- &#45;1660084399434532774 -->
<g id="node14" class="node">
<title>&#45;1660084399434532774</title>
<ellipse fill="none" stroke="black" cx="397.25" cy="-882" rx="42.57" ry="18"/>
<text xml:space="preserve" text-anchor="middle" x="397.25" y="-876.2" font-family="Helvetica,sans-Serif" font-size="14.00">coc built</text>
</g>
<!-- &#45;1674456628213944627&#45;&gt;&#45;1660084399434532774 -->
<g id="edge15" class="edge">
<title>&#45;1674456628213944627&#45;&gt;&#45;1660084399434532774</title>
<path fill="none" stroke="black" d="M372.41,-828.3C376,-835.93 380.32,-845.08 384.33,-853.6"/>
<polygon fill="black" stroke="black" points="381.11,-854.97 388.54,-862.53 387.44,-851.99 381.11,-854.97"/>
</g>
<!-- &#45;1660084399434532774&#45;&gt;&#45;6304523326375149095 -->
<g id="edge19" class="edge">
<title>&#45;1660084399434532774&#45;&gt;&#45;6304523326375149095</title>
<path fill="none" stroke="black" d="M405,-899.95C408.48,-907.57 412.69,-916.77 416.61,-925.35"/>
<polygon fill="black" stroke="black" points="413.38,-926.71 420.72,-934.35 419.75,-923.8 413.38,-926.71"/>
</g>
<!-- 1880907715811514188 -->
<g id="node16" class="node">
<title>1880907715811514188</title>
<ellipse fill="none" stroke="black" cx="508.25" cy="-1026" rx="75.23" ry="18"/>
<text xml:space="preserve" text-anchor="middle" x="508.25" y="-1020.2" font-family="Helvetica,sans-Serif" font-size="14.00">coc_scen solved</text>
</g>
<!-- &#45;6304523326375149095&#45;&gt;1880907715811514188 -->
<g id="edge18" class="edge">
<title>&#45;6304523326375149095&#45;&gt;1880907715811514188</title>
<path fill="none" stroke="black" d="M448.78,-972.3C458.42,-980.84 470.21,-991.29 480.74,-1000.63"/>
<polygon fill="black" stroke="black" points="478.28,-1003.12 488.09,-1007.13 482.92,-997.88 478.28,-1003.12"/>
</g>
<!-- 1880907715811514188&#45;&gt;&#45;1430140620592831045 -->
<g id="edge22" class="edge">
<title>1880907715811514188&#45;&gt;&#45;1430140620592831045</title>
<path fill="none" stroke="black" d="M520.6,-1043.95C526.4,-1051.91 533.45,-1061.59 539.94,-1070.49"/>
<polygon fill="black" stroke="black" points="537.05,-1072.48 545.77,-1078.5 542.71,-1068.36 537.05,-1072.48"/>
</g>
<!-- 3963562516104030953 -->
<g id="node18" class="node">
<title>3963562516104030953</title>
<ellipse fill="none" stroke="black" cx="559.25" cy="-1170" rx="82.54" ry="18"/>
<text xml:space="preserve" text-anchor="middle" x="559.25" y="-1164.2" font-family="Helvetica,sans-Serif" font-size="14.00">coc_scen reported</text>
</g>
<!-- &#45;1430140620592831045&#45;&gt;3963562516104030953 -->
<g id="edge21" class="edge">
<title>&#45;1430140620592831045&#45;&gt;3963562516104030953</title>
<path fill="none" stroke="black" d="M559.25,-1116.3C559.25,-1123.59 559.25,-1132.27 559.25,-1140.46"/>
<polygon fill="black" stroke="black" points="555.75,-1140.38 559.25,-1150.38 562.75,-1140.38 555.75,-1140.38"/>
</g>
</g>
</svg>
