<?xml version="1.0" encoding="UTF-8" standalone="no"?>
<!DOCTYPE svg PUBLIC "-//W3C//DTD SVG 1.1//EN"
 "http://www.w3.org/Graphics/SVG/1.1/DTD/svg11.dtd">
<!-- Generated by graphviz version 13.1.0 (20250701.0955)
 -->
<!-- Pages: 1 -->
<svg width="860pt" height="1340pt"
 viewBox="0.00 0.00 860.00 1340.00" xmlns="http://www.w3.org/2000/svg" xmlns:xlink="http://www.w3.org/1999/xlink">
<g id="graph0" class="graph" transform="scale(1 1) rotate(0) translate(4 1336)">
<polygon fill="white" stroke="none" points="-4,4 -4,-1336 855.5,-1336 855.5,4 -4,4"/>
<!-- 2543453409917884687 -->
<g id="node1" class="node">
<title>2543453409917884687</title>
<ellipse fill="none" stroke="black" cx="530" cy="-18" rx="33.8" ry="18"/>
<text xml:space="preserve" text-anchor="middle" x="530" y="-12.2" font-family="Helvetica,sans-Serif" font-size="14.00">config</text>
</g>
<!-- 5999777718184372155 -->
<g id="node2" class="node">
<title>5999777718184372155</title>
<ellipse fill="none" stroke="black" cx="620" cy="-18" rx="38.67" ry="18"/>
<text xml:space="preserve" text-anchor="middle" x="620" y="-12.2" font-family="Helvetica,sans-Serif" font-size="14.00">context</text>
</g>
<!-- 1425894600022783136 -->
<g id="node3" class="node">
<title>1425894600022783136</title>
<polygon fill="none" stroke="black" points="478,-108 0,-108 0,-72 478,-72 478,-108"/>
<text xml:space="preserve" text-anchor="middle" x="239" y="-84.2" font-family="Helvetica,sans-Serif" font-size="14.00">Step load &#45;&gt; MESSAGEix&#45;GLOBIOM 2.0&#45;M&#45;R12 Investment/Baseline_SSP2</text>
</g>
<!-- 5999777718184372155&#45;&gt;1425894600022783136 -->
<g id="edge2" class="edge">
<title>5999777718184372155&#45;&gt;1425894600022783136</title>
<path fill="none" stroke="black" d="M591.19,-30.39C585.24,-32.47 578.97,-34.46 573,-36 517.02,-50.43 454.69,-61.6 399.18,-69.88"/>
<polygon fill="black" stroke="black" points="398.69,-66.41 389.3,-71.33 399.7,-73.34 398.69,-66.41"/>
</g>
<!-- &#45;7813564371156862368 -->
<g id="node5" class="node">
<title>&#45;7813564371156862368</title>
<polygon fill="none" stroke="black" points="515.75,-252 24.25,-252 24.25,-216 515.75,-216 515.75,-252"/>
<text xml:space="preserve" text-anchor="middle" x="270" y="-228.2" font-family="Helvetica,sans-Serif" font-size="14.00">Step main() &#45;&gt; MESSAGEix&#45;GLOBIOM 2.0&#45;M&#45;R12 Investment/Baseline_SSP2</text>
</g>
<!-- 5999777718184372155&#45;&gt;&#45;7813564371156862368 -->
<g id="edge5" class="edge">
<title>5999777718184372155&#45;&gt;&#45;7813564371156862368</title>
<path fill="none" stroke="black" d="M595.26,-32.12C576.78,-42.26 551.18,-57.05 530,-72 509.64,-86.37 507.43,-93.73 487,-108 429.8,-147.96 359.03,-186.95 314.18,-210.48"/>
<polygon fill="black" stroke="black" points="312.79,-207.26 305.54,-214.99 316.02,-213.46 312.79,-207.26"/>
</g>
<!-- &#45;2205756964621683353 -->
<g id="node7" class="node">
<title>&#45;2205756964621683353</title>
<polygon fill="none" stroke="black" points="553.75,-396 62.25,-396 62.25,-360 553.75,-360 553.75,-396"/>
<text xml:space="preserve" text-anchor="middle" x="308" y="-372.2" font-family="Helvetica,sans-Serif" font-size="14.00">Step main() &#45;&gt; MESSAGEix&#45;GLOBIOM 2.0&#45;M&#45;R12 Investment/Baseline_SSP2</text>
</g>
<!-- 5999777718184372155&#45;&gt;&#45;2205756964621683353 -->
<g id="edge8" class="edge">
<title>5999777718184372155&#45;&gt;&#45;2205756964621683353</title>
<path fill="none" stroke="black" d="M600.91,-34.08C589.81,-43.81 576.39,-57.34 568,-72 547.66,-107.56 544,-120.03 544,-161 544,-161 544,-161 544,-235 544,-301 475.41,-337.1 412.18,-356.37"/>
<polygon fill="black" stroke="black" points="411.35,-352.97 402.73,-359.12 413.31,-359.69 411.35,-352.97"/>
</g>
<!-- &#45;2722319190646639531 -->
<g id="node9" class="node">
<title>&#45;2722319190646639531</title>
<polygon fill="none" stroke="black" points="591.75,-540 100.25,-540 100.25,-504 591.75,-504 591.75,-540"/>
<text xml:space="preserve" text-anchor="middle" x="346" y="-516.2" font-family="Helvetica,sans-Serif" font-size="14.00">Step main() &#45;&gt; MESSAGEix&#45;GLOBIOM 2.0&#45;M&#45;R12 Investment/Baseline_SSP2</text>
</g>
<!-- 5999777718184372155&#45;&gt;&#45;2722319190646639531 -->
<g id="edge10" class="edge">
<title>5999777718184372155&#45;&gt;&#45;2722319190646639531</title>
<path fill="none" stroke="black" d="M612.31,-36.09C601.21,-62.38 582,-114.55 582,-161 582,-161 582,-161 582,-379 582,-445 513.41,-481.1 450.18,-500.37"/>
<polygon fill="black" stroke="black" points="449.35,-496.97 440.73,-503.12 451.31,-503.69 449.35,-496.97"/>
</g>
<!-- 6014332339326176123 -->
<g id="node11" class="node">
<title>6014332339326176123</title>
<polygon fill="none" stroke="black" points="629.75,-684 138.25,-684 138.25,-648 629.75,-648 629.75,-684"/>
<text xml:space="preserve" text-anchor="middle" x="384" y="-660.2" font-family="Helvetica,sans-Serif" font-size="14.00">Step main() &#45;&gt; MESSAGEix&#45;GLOBIOM 2.0&#45;M&#45;R12 Investment/Baseline_SSP2</text>
</g>
<!-- 5999777718184372155&#45;&gt;6014332339326176123 -->
<g id="edge14" class="edge">
<title>5999777718184372155&#45;&gt;6014332339326176123</title>
<path fill="none" stroke="black" d="M620,-36.49C620,-63.29 620,-116.13 620,-161 620,-161 620,-161 620,-523 620,-589 551.41,-625.1 488.18,-644.37"/>
<polygon fill="black" stroke="black" points="487.35,-640.97 478.73,-647.12 489.31,-647.69 487.35,-640.97"/>
</g>
<!-- 7465843861348649835 -->
<g id="node13" class="node">
<title>7465843861348649835</title>
<polygon fill="none" stroke="black" points="667.75,-828 116.25,-828 116.25,-792 667.75,-792 667.75,-828"/>
<text xml:space="preserve" text-anchor="middle" x="392" y="-804.2" font-family="Helvetica,sans-Serif" font-size="14.00">Step load &#45;&gt; MESSAGEix&#45;GLOBIOM 2.0&#45;M&#45;R12 Investment/Baseline_SSP2_coc_added</text>
</g>
<!-- 5999777718184372155&#45;&gt;7465843861348649835 -->
<g id="edge17" class="edge">
<title>5999777718184372155&#45;&gt;7465843861348649835</title>
<path fill="none" stroke="black" d="M627.69,-36.09C638.79,-62.38 658,-114.55 658,-161 658,-161 658,-161 658,-667 658,-734.58 590.36,-770.11 523.3,-788.73"/>
<polygon fill="black" stroke="black" points="522.78,-785.25 514.01,-791.19 524.57,-792.01 522.78,-785.25"/>
</g>
<!-- 7841899623130949654 -->
<g id="node15" class="node">
<title>7841899623130949654</title>
<polygon fill="none" stroke="black" points="706,-972 114,-972 114,-936 706,-936 706,-972"/>
<text xml:space="preserve" text-anchor="middle" x="410" y="-948.2" font-family="Helvetica,sans-Serif" font-size="14.00">Step build_coc() &#45;&gt; MESSAGEix&#45;GLOBIOM 2.0&#45;M&#45;R12 Investment/Baseline_SSP2_coc_added</text>
</g>
<!-- 5999777718184372155&#45;&gt;7841899623130949654 -->
<g id="edge19" class="edge">
<title>5999777718184372155&#45;&gt;7841899623130949654</title>
<path fill="none" stroke="black" d="M635.38,-34.98C657.59,-59.81 696,-110.11 696,-161 696,-161 696,-161 696,-811 696,-878.75 630.82,-914.18 562.69,-932.7"/>
<polygon fill="black" stroke="black" points="562.01,-929.26 553.21,-935.15 563.77,-936.04 562.01,-929.26"/>
</g>
<!-- 5588176069869697323 -->
<g id="node17" class="node">
<title>5588176069869697323</title>
<polygon fill="none" stroke="black" points="744.25,-1116 177.75,-1116 177.75,-1080 744.25,-1080 744.25,-1116"/>
<text xml:space="preserve" text-anchor="middle" x="461" y="-1092.2" font-family="Helvetica,sans-Serif" font-size="14.00">Step solve() &#45;&gt; MESSAGEix&#45;GLOBIOM 2.0&#45;M&#45;R12 Investment/Baseline_SSP2_coc_added</text>
</g>
<!-- 5999777718184372155&#45;&gt;5588176069869697323 -->
<g id="edge22" class="edge">
<title>5999777718184372155&#45;&gt;5588176069869697323</title>
<path fill="none" stroke="black" d="M642.52,-32.94C675.75,-55.44 734,-103.15 734,-161 734,-161 734,-161 734,-955 734,-1022.7 667.11,-1058.17 599.55,-1076.73"/>
<polygon fill="black" stroke="black" points="598.96,-1073.27 590.17,-1079.18 600.73,-1080.04 598.96,-1073.27"/>
</g>
<!-- &#45;8950364006488310451 -->
<g id="node19" class="node">
<title>&#45;8950364006488310451</title>
<polygon fill="none" stroke="black" points="851.5,-1260 382.5,-1260 382.5,-1224 851.5,-1224 851.5,-1260"/>
<text xml:space="preserve" text-anchor="middle" x="617" y="-1236.2" font-family="Helvetica,sans-Serif" font-size="14.00">Step report() &#45;&gt; MESSAGEix&#45;GLOBIOM 2.0&#45;M&#45;R12 Investment/coc_added</text>
</g>
<!-- 5999777718184372155&#45;&gt;&#45;8950364006488310451 -->
<g id="edge26" class="edge">
<title>5999777718184372155&#45;&gt;&#45;8950364006488310451</title>
<path fill="none" stroke="black" d="M648.95,-30.45C693.05,-50.03 772,-94.37 772,-161 772,-161 772,-161 772,-1099 772,-1155.54 715.23,-1195.66 670.4,-1218.52"/>
<polygon fill="black" stroke="black" points="668.96,-1215.32 661.53,-1222.88 672.05,-1221.6 668.96,-1215.32"/>
</g>
<!-- 8796063333797658130 -->
<g id="node4" class="node">
<title>8796063333797658130</title>
<ellipse fill="none" stroke="black" cx="255" cy="-162" rx="29.41" ry="18"/>
<text xml:space="preserve" text-anchor="middle" x="255" y="-156.2" font-family="Helvetica,sans-Serif" font-size="14.00">base</text>
</g>
<!-- 1425894600022783136&#45;&gt;8796063333797658130 -->
<g id="edge1" class="edge">
<title>1425894600022783136&#45;&gt;8796063333797658130</title>
<path fill="none" stroke="black" d="M242.96,-108.3C244.64,-115.68 246.65,-124.48 248.54,-132.75"/>
<polygon fill="black" stroke="black" points="245.11,-133.45 250.75,-142.42 251.94,-131.89 245.11,-133.45"/>
</g>
<!-- 8796063333797658130&#45;&gt;&#45;7813564371156862368 -->
<g id="edge4" class="edge">
<title>8796063333797658130&#45;&gt;&#45;7813564371156862368</title>
<path fill="none" stroke="black" d="M258.71,-180.3C260.29,-187.68 262.17,-196.48 263.95,-204.75"/>
<polygon fill="black" stroke="black" points="260.5,-205.37 266.02,-214.42 267.34,-203.9 260.5,-205.37"/>
</g>
<!-- 6697113960012149496 -->
<g id="node6" class="node">
<title>6697113960012149496</title>
<ellipse fill="none" stroke="black" cx="289" cy="-306" rx="99.12" ry="18"/>
<text xml:space="preserve" text-anchor="middle" x="289" y="-300.2" font-family="Helvetica,sans-Serif" font-size="14.00">wacc_cf reg generated</text>
</g>
<!-- &#45;7813564371156862368&#45;&gt;6697113960012149496 -->
<g id="edge3" class="edge">
<title>&#45;7813564371156862368&#45;&gt;6697113960012149496</title>
<path fill="none" stroke="black" d="M274.7,-252.3C276.72,-259.76 279.14,-268.68 281.41,-277.03"/>
<polygon fill="black" stroke="black" points="277.96,-277.7 283.96,-286.43 284.72,-275.87 277.96,-277.7"/>
</g>
<!-- 6697113960012149496&#45;&gt;&#45;2205756964621683353 -->
<g id="edge7" class="edge">
<title>6697113960012149496&#45;&gt;&#45;2205756964621683353</title>
<path fill="none" stroke="black" d="M293.7,-324.3C295.72,-331.76 298.14,-340.68 300.41,-349.03"/>
<polygon fill="black" stroke="black" points="296.96,-349.7 302.96,-358.43 303.72,-347.87 296.96,-349.7"/>
</g>
<!-- 297897074586191182 -->
<g id="node8" class="node">
<title>297897074586191182</title>
<ellipse fill="none" stroke="black" cx="327" cy="-450" rx="59.14" ry="18"/>
<text xml:space="preserve" text-anchor="middle" x="327" y="-444.2" font-family="Helvetica,sans-Serif" font-size="14.00">cf generated</text>
</g>
<!-- &#45;2205756964621683353&#45;&gt;297897074586191182 -->
<g id="edge6" class="edge">
<title>&#45;2205756964621683353&#45;&gt;297897074586191182</title>
<path fill="none" stroke="black" d="M312.7,-396.3C314.72,-403.76 317.14,-412.68 319.41,-421.03"/>
<polygon fill="black" stroke="black" points="315.96,-421.7 321.96,-430.43 322.72,-419.87 315.96,-421.7"/>
</g>
<!-- 297897074586191182&#45;&gt;&#45;2722319190646639531 -->
<g id="edge11" class="edge">
<title>297897074586191182&#45;&gt;&#45;2722319190646639531</title>
<path fill="none" stroke="black" d="M331.7,-468.3C333.72,-475.76 336.14,-484.68 338.41,-493.03"/>
<polygon fill="black" stroke="black" points="334.96,-493.7 340.96,-502.43 341.72,-491.87 334.96,-493.7"/>
</g>
<!-- &#45;579975664036145349 -->
<g id="node10" class="node">
<title>&#45;579975664036145349</title>
<ellipse fill="none" stroke="black" cx="365" cy="-594" rx="72.31" ry="18"/>
<text xml:space="preserve" text-anchor="middle" x="365" y="-588.2" font-family="Helvetica,sans-Serif" font-size="14.00">wacc generated</text>
</g>
<!-- &#45;2722319190646639531&#45;&gt;&#45;579975664036145349 -->
<g id="edge9" class="edge">
<title>&#45;2722319190646639531&#45;&gt;&#45;579975664036145349</title>
<path fill="none" stroke="black" d="M350.7,-540.3C352.72,-547.76 355.14,-556.68 357.41,-565.03"/>
<polygon fill="black" stroke="black" points="353.96,-565.7 359.96,-574.43 360.72,-563.87 353.96,-565.7"/>
</g>
<!-- &#45;579975664036145349&#45;&gt;6014332339326176123 -->
<g id="edge13" class="edge">
<title>&#45;579975664036145349&#45;&gt;6014332339326176123</title>
<path fill="none" stroke="black" d="M369.7,-612.3C371.72,-619.76 374.14,-628.68 376.41,-637.03"/>
<polygon fill="black" stroke="black" points="372.96,-637.7 378.96,-646.43 379.72,-635.87 372.96,-637.7"/>
</g>
<!-- 7992134543909897721 -->
<g id="node12" class="node">
<title>7992134543909897721</title>
<ellipse fill="none" stroke="black" cx="388" cy="-738" rx="84.49" ry="18"/>
<text xml:space="preserve" text-anchor="middle" x="388" y="-732.2" font-family="Helvetica,sans-Serif" font-size="14.00">inv_cost generated</text>
</g>
<!-- 6014332339326176123&#45;&gt;7992134543909897721 -->
<g id="edge12" class="edge">
<title>6014332339326176123&#45;&gt;7992134543909897721</title>
<path fill="none" stroke="black" d="M384.99,-684.3C385.41,-691.59 385.9,-700.27 386.37,-708.46"/>
<polygon fill="black" stroke="black" points="382.87,-708.6 386.94,-718.38 389.86,-708.2 382.87,-708.6"/>
</g>
<!-- 7992134543909897721&#45;&gt;7465843861348649835 -->
<g id="edge16" class="edge">
<title>7992134543909897721&#45;&gt;7465843861348649835</title>
<path fill="none" stroke="black" d="M388.99,-756.3C389.41,-763.59 389.9,-772.27 390.37,-780.46"/>
<polygon fill="black" stroke="black" points="386.87,-780.6 390.94,-790.38 393.86,-780.2 386.87,-780.6"/>
</g>
<!-- &#45;7118007565818440866 -->
<g id="node14" class="node">
<title>&#45;7118007565818440866</title>
<ellipse fill="none" stroke="black" cx="401" cy="-882" rx="57.68" ry="18"/>
<text xml:space="preserve" text-anchor="middle" x="401" y="-876.2" font-family="Helvetica,sans-Serif" font-size="14.00">base cloned</text>
</g>
<!-- 7465843861348649835&#45;&gt;&#45;7118007565818440866 -->
<g id="edge15" class="edge">
<title>7465843861348649835&#45;&gt;&#45;7118007565818440866</title>
<path fill="none" stroke="black" d="M394.22,-828.3C395.17,-835.68 396.3,-844.48 397.37,-852.75"/>
<polygon fill="black" stroke="black" points="393.86,-852.92 398.61,-862.39 400.8,-852.03 393.86,-852.92"/>
</g>
<!-- &#45;7118007565818440866&#45;&gt;7841899623130949654 -->
<g id="edge20" class="edge">
<title>&#45;7118007565818440866&#45;&gt;7841899623130949654</title>
<path fill="none" stroke="black" d="M403.22,-900.3C404.17,-907.68 405.3,-916.48 406.37,-924.75"/>
<polygon fill="black" stroke="black" points="402.86,-924.92 407.61,-934.39 409.8,-924.03 402.86,-924.92"/>
</g>
<!-- 7352703858951218126 -->
<g id="node16" class="node">
<title>7352703858951218126</title>
<ellipse fill="none" stroke="black" cx="436" cy="-1026" rx="42.57" ry="18"/>
<text xml:space="preserve" text-anchor="middle" x="436" y="-1020.2" font-family="Helvetica,sans-Serif" font-size="14.00">coc built</text>
</g>
<!-- 7841899623130949654&#45;&gt;7352703858951218126 -->
<g id="edge18" class="edge">
<title>7841899623130949654&#45;&gt;7352703858951218126</title>
<path fill="none" stroke="black" d="M416.43,-972.3C419.23,-979.85 422.58,-988.88 425.72,-997.32"/>
<polygon fill="black" stroke="black" points="422.36,-998.32 429.12,-1006.48 428.92,-995.88 422.36,-998.32"/>
</g>
<!-- 7352703858951218126&#45;&gt;5588176069869697323 -->
<g id="edge23" class="edge">
<title>7352703858951218126&#45;&gt;5588176069869697323</title>
<path fill="none" stroke="black" d="M442.18,-1044.3C444.87,-1051.85 448.1,-1060.88 451.11,-1069.32"/>
<polygon fill="black" stroke="black" points="447.72,-1070.23 454.38,-1078.47 454.31,-1067.88 447.72,-1070.23"/>
</g>
<!-- &#45;3166023222450815824 -->
<g id="node18" class="node">
<title>&#45;3166023222450815824</title>
<ellipse fill="none" stroke="black" cx="577" cy="-1170" rx="51.83" ry="18"/>
<text xml:space="preserve" text-anchor="middle" x="577" y="-1164.2" font-family="Helvetica,sans-Serif" font-size="14.00">coc solved</text>
</g>
<!-- 5588176069869697323&#45;&gt;&#45;3166023222450815824 -->
<g id="edge21" class="edge">
<title>5588176069869697323&#45;&gt;&#45;3166023222450815824</title>
<path fill="none" stroke="black" d="M489.97,-1116.48C505.9,-1126.1 525.77,-1138.09 542.5,-1148.18"/>
<polygon fill="black" stroke="black" points="540.27,-1150.92 550.64,-1153.09 543.89,-1144.93 540.27,-1150.92"/>
</g>
<!-- &#45;3166023222450815824&#45;&gt;&#45;8950364006488310451 -->
<g id="edge25" class="edge">
<title>&#45;3166023222450815824&#45;&gt;&#45;8950364006488310451</title>
<path fill="none" stroke="black" d="M586.68,-1187.95C591.14,-1195.74 596.53,-1205.18 601.53,-1213.92"/>
<polygon fill="black" stroke="black" points="598.38,-1215.46 606.38,-1222.41 604.45,-1211.99 598.38,-1215.46"/>
</g>
<!-- &#45;5991559821412390488 -->
<g id="node20" class="node">
<title>&#45;5991559821412390488</title>
<ellipse fill="none" stroke="black" cx="617" cy="-1314" rx="59.14" ry="18"/>
<text xml:space="preserve" text-anchor="middle" x="617" y="-1308.2" font-family="Helvetica,sans-Serif" font-size="14.00">coc reported</text>
</g>
<!-- &#45;8950364006488310451&#45;&gt;&#45;5991559821412390488 -->
<g id="edge24" class="edge">
<title>&#45;8950364006488310451&#45;&gt;&#45;5991559821412390488</title>
<path fill="none" stroke="black" d="M617,-1260.3C617,-1267.59 617,-1276.27 617,-1284.46"/>
<polygon fill="black" stroke="black" points="613.5,-1284.38 617,-1294.38 620.5,-1284.38 613.5,-1284.38"/>
</g>
</g>
</svg>
